<svg version="1.1" xmlns="http://www.w3.org/2000/svg" width="1690px" height="721px" viewBox="0 0 1690 721">
 <g fill="#cce8cf">
  <path d="M1213.3 503.7 c-2.5 -1.9 -4.2 -4 -4.2 -5.2 -0.1 -2.2 4.8 -23.5 9.7 -43 5.8 -22.9 13.2 -72.3 15.3 -102 0.7 -10.3 0.7 -17.3 -0.2 -26.5 -0.7 -6.9 -1.3 -16.3 -1.3 -21 -0.1 -8.5 -0.1 -8.5 2.5 -8.8 4 -0.5 7.7 3.4 10.3 10.8 1.8 5 3.1 7 5.6 8.5 7.1 4.4 10.8 8.6 14.9 17 4.6 9.5 9.9 22.8 15.5 38.8 l3.8 10.7 6.2 0 c9.3 0 31.6 -2.8 36.3 -4.6 4.8 -1.7 5.3 -2.8 7.8 -16.3 2.1 -11.4 2 -11.5 -1.2 -10.7 -3.1 0.6 -49.7 7.6 -51.1 7.6 -1.3 0 -3.4 -7.8 -2.7 -9.9 1.4 -4.4 14.3 -7.2 42.1 -9.2 8.9 -0.6 16.6 -1.4 17 -1.8 0.8 -0.6 6.4 -21.3 6.4 -23.7 0 -0.8 -5.7 -1.4 -17.9 -1.9 l-17.9 -0.7 -10.3 4.7 c-11.9 5.5 -24.6 9.8 -26.6 9.1 -0.7 -0.3 -2.1 -2.2 -3 -4.2 -1.8 -3.6 -1.8 -3.6 0.9 -5.9 1.5 -1.3 5.7 -3.3 9.5 -4.5 11.7 -3.9 15.9 -6.5 19 -11.7 3.1 -5.3 9.3 -20.5 9.3 -22.8 0 -1.9 -13.5 -2 -46.3 -0.3 -22.1 1.1 -22.9 1.1 -25.5 -0.9 -2 -1.5 -2.6 -2.8 -2.7 -6.2 -0.1 -2.3 0.4 -4.9 0.9 -5.7 0.9 -1.1 9 -1.6 44.1 -2.4 41.4 -1 49.2 -1.5 60 -4 7.9 -1.8 30.6 -3.1 32.1 -1.9 2.1 1.7 2.7 7.4 1.2 10.6 -1.7 3.7 -6.5 4.8 -25.5 6.2 -8.1 0.5 -16.9 1.5 -19.5 2.2 -5 1.4 -5.9 2.7 -10.8 15.9 -3.2 8.9 -3.5 8.6 8.5 9.3 11.6 0.7 24.4 3.1 28.7 5.3 7.6 4 7.5 11 -0.6 37.4 -1.3 4.1 -4.1 15.8 -6.2 25.9 -2.1 10.1 -4.4 18.9 -5.1 19.6 -0.7 0.8 -3.7 1.9 -6.6 2.5 -3.5 0.7 -5.7 1.8 -6.7 3.3 -1.3 1.8 -1.5 10.1 -1.8 52.2 -0.2 45.2 -0.4 50.1 -1.9 51.3 -5.2 3.9 -15.4 -1.5 -21.2 -11.3 -5.2 -8.7 -10.3 -24.1 -9.9 -29.9 l0.3 -4.6 4.7 5.8 c2.6 3.2 6.5 9 8.8 13 2.3 4 4.8 7.2 5.6 7.2 1.1 0 1.4 -7 1.6 -41.2 0.2 -22.7 0.2 -41.5 0 -41.7 -0.1 -0.3 -4.2 0.3 -9 1.4 -4.8 1 -11.8 2.4 -15.7 3.1 l-7 1.2 -3.8 -3.6 c-4.9 -4.7 -6 -6.8 -11.7 -22.7 -5.8 -15.8 -18 -41.5 -19.8 -41.5 -1 0 -1.2 1.9 -0.6 9.3 0.4 5.3 0.1 14.6 -0.5 21.7 -1.8 18.4 -9 60.2 -16.6 95.5 -9.1 42.8 -10.5 48.5 -11.8 48.4 -0.7 0 -3.1 -1.5 -5.4 -3.2z"/>
  <path d="M1064 491.9 c-19.4 -2.6 -46.4 -9.2 -55 -13.6 -9.4 -4.7 -15.9 -12 -24.3 -27.6 -6 -11.2 -6.9 -13.5 -8.2 -21.9 -0.8 -5.1 -2.6 -16.5 -4 -25.3 -2.6 -15.3 -2.7 -17.3 -2.2 -43 0.5 -28.2 2.7 -53.8 5.4 -64 1.5 -5.8 2.3 -9.6 4.3 -21.5 0.6 -3 2.6 -8.5 4.5 -12.3 5.7 -11 5.7 -11 -12.2 -7.2 -6.5 1.4 -22.7 3.9 -36.1 5.6 -26.6 3.3 -37.9 5.7 -42 9 -2.3 1.8 -2.7 1.9 -3 0.5 -0.5 -2.5 -2.2 -1.9 -7.1 2.2 -5.4 4.6 -10.7 7.5 -12.4 6.9 -1.4 -0.6 11.1 -13 18.9 -18.8 11.3 -8.3 16.8 -9.9 44.9 -12.4 16.1 -1.5 28 -3.3 49.5 -7.5 5.2 -1 12.7 -2.1 16.6 -2.5 10.9 -0.9 11.1 -0.2 3.6 15.3 -10.1 21.1 -11.4 24.4 -12.3 31.7 -0.5 3.9 -1.3 9 -1.9 11.5 -4.4 20.4 -7.5 57.1 -6.7 81.4 0.5 17.7 2.1 27.6 5.6 35.8 1.1 2.6 2.3 7.5 2.7 11 0.6 6.2 1.6 8.5 10.3 24 6 10.7 15.5 16.8 32.9 21.3 15.1 3.8 15.3 3.7 9.7 -4.8 -3.8 -5.7 -10.5 -24.7 -10.5 -29.6 0 -3.6 2.2 -5 4.6 -3 0.9 0.7 3.8 5.7 6.5 11.1 5.7 11.3 9.9 16.3 18.4 22.1 8.2 5.6 17.3 15.4 18.1 19.5 0.6 3.1 -1.6 8.3 -3.4 8.1 -0.4 -0.1 -7.2 -1 -15.2 -2z"/>
  <path d="M773.3 491.2 c-1.8 -1 -5.9 -4 -9 -6.8 -8.7 -7.6 -28.4 -23.1 -41 -32.3 -18.8 -13.6 -46.1 -31.3 -47.8 -30.9 -1.2 0.2 -3.7 6 -8.1 18.3 -9.9 27.8 -12.4 33.5 -15 34.7 -2.9 1.3 -4.8 0.6 -7 -2.7 -2.3 -3.5 -1 -9.2 5 -21.7 4.3 -9 26.6 -73.3 26.6 -76.7 0 -0.9 -1.3 -2.1 -2.8 -2.7 -1.7 -0.6 -6 -5.1 -10.5 -10.7 -5.6 -6.9 -9.2 -10.4 -13.2 -12.6 -5.6 -3.2 -8.1 -6.2 -6.9 -8.4 1.8 -3.2 5 -5.7 7.2 -5.7 3.8 0 12.3 7 20.8 17 4.2 5 8.2 9 8.9 9 3.3 0 19.6 -69.6 21.1 -90.3 0.6 -8.3 1 -10 2.8 -11.2 3.1 -2.2 6.2 -1.8 8.5 1.2 1.8 2.2 2 3.5 1.5 9.2 -2.5 27.4 -12 66.6 -28.4 116.6 -4 11.9 -6.8 22 -6.3 22.4 0.4 0.4 7.1 4.9 14.8 10.1 18.3 12.2 36.3 25 55.7 39.7 8.6 6.5 19.2 13.7 23.6 16 8.4 4.5 10.2 6.8 10.2 12.8 0 2.4 -0.7 3.9 -2.6 5.4 -3.2 2.5 -3.9 2.5 -8.1 0.3z"/>
  <path d="M1393.8 487.3 c-1.9 -2.7 -5.2 -7.9 -7.3 -11.8 -3.8 -7 -10.7 -18.3 -17.4 -28.4 -1.9 -3 -6.7 -8.1 -10.6 -11.4 -15.2 -13 -19.7 -18.4 -17.2 -20.5 2.3 -2 19.6 6 27.3 12.5 5.4 4.6 32 42.8 33.5 48 1.5 5.6 0.7 13.3 -1.7 15 -2.5 1.8 -2.6 1.8 -6.6 -3.4z"/>
  <path d="M811.4 485.4 c-1.4 -5.6 0.6 -17.1 6.1 -34.9 7.7 -24.6 15.3 -54.6 26 -102.5 2.2 -10 3.6 -27.2 4.3 -53.2 l0.7 -23.8 3.1 -3.1 c3.6 -3.5 5.5 -3.4 10.4 0.8 l3 2.5 0 20.6 c0 19 -0.3 21.9 -3.1 35.7 -1.6 8.3 -3.4 19.3 -3.9 24.5 -0.5 5.2 -2.9 17.4 -5.4 27 -2.4 9.6 -5.2 21.6 -6.2 26.5 -0.9 5 -2.3 10.1 -2.9 11.5 -0.7 1.4 -1.8 6.1 -2.5 10.5 -2.3 16.3 -6.5 29.4 -14.2 45.1 l-7.3 14.9 -3.7 0.3 c-3.3 0.3 -3.8 0 -4.4 -2.4z"/>
  <path d="M1256 487.2 c-2.7 -0.8 -5 -3.5 -5 -5.5 0 -1.1 1.7 -5.2 3.8 -9.1 6.4 -11.8 13.1 -29.8 17.3 -46.3 2.1 -8.6 3.9 -15.8 3.9 -15.9 0 -0.2 1.4 0.2 3 0.8 1.7 0.5 4.2 0.7 5.5 0.4 2.2 -0.6 2.5 -0.3 2.5 2 0 3.8 -3.7 21.3 -5.9 28.1 -2.5 7.6 -12.9 31.4 -14.6 33.3 -0.7 0.8 -2 2.9 -2.9 4.5 -2.5 4.8 -6 8.3 -7.6 7.7z"/>
  <path d="M576.4 476.8 c-11.9 -8.9 -28.7 -30.9 -37.6 -49.3 -1.3 -2.6 -2.8 -4.4 -3.6 -4.3 -2.1 0.4 -11.1 23.5 -11.2 28.6 0 5.1 -3.4 9.2 -7.5 9.2 -3.6 0 -7.5 -4.2 -7.5 -8 0 -1.7 3.7 -10.9 8.9 -21.8 4.9 -10.3 9.6 -20.9 10.6 -23.7 2.1 -6.3 3.1 -7.5 6.4 -7.5 4.2 0 5.6 1.8 9.9 12.6 2.2 5.6 6 13.3 8.4 17.3 5.7 9.4 15.9 22.1 17.8 22.1 1.3 0 1.5 -6.3 1.5 -50.5 0 -44.6 -0.2 -50.5 -1.5 -50.5 -0.9 0 -9.4 2.3 -18.9 5 -20.5 5.9 -26.4 6.5 -29.2 3.1 -2.4 -3 -2.4 -6.3 0.1 -8.6 1.1 -1 7.4 -3 14.7 -4.7 7 -1.5 18 -4.3 24.3 -6.1 l11.5 -3.2 0.7 -5 c0.3 -2.8 1 -13.5 1.4 -23.8 0.8 -20.6 1.1 -21.7 6.5 -21.7 4.2 0 9.4 5.2 8.4 8.3 -1.1 3.7 -3.8 36.7 -3.1 37.5 0.4 0.3 8.6 -1.3 18.2 -3.8 19 -4.8 21 -4.8 24.6 0.1 1.8 2.4 1.8 2.9 0.5 6.1 -1.7 4.2 -2.2 4.3 -14.2 5.8 -7.3 0.9 -30.4 5.7 -30.5 6.3 0 0.1 -0.5 13.5 -1 29.7 -1.2 36.7 0.1 85 2.5 90.6 2.2 5.2 1.9 6.9 -1.6 9.8 -3.7 3.2 -5.8 3.3 -9.5 0.4z"/>
  <path d="M1423.2 476.4 c-6.1 -4.2 -4.6 -9.1 4.1 -13.5 10.7 -5.4 46.2 -13 84.4 -18 l9.2 -1.2 0.5 -4.1 c0.3 -2.2 0.8 -9.3 1.1 -15.6 1.1 -23.2 3.4 -78 4 -94.5 0.7 -18.7 -0.8 -47.9 -2.8 -56.6 -0.9 -3.8 -1 -6.2 -0.4 -7.7 1.9 -4.3 8.3 -3.7 10.7 0.9 2.7 4.9 4.1 17.3 4.7 40.1 l0.6 23.8 4.1 0 c2.3 0 8.6 -1.1 14.1 -2.4 54.8 -13.1 75.2 -17.7 77.3 -17.1 1.3 0.3 3.5 1.7 4.9 3.1 2.6 2.6 2.6 6.4 -0.1 9.2 -0.7 0.7 -7.1 2.2 -14.3 3.2 -16.2 2.4 -32.4 5.8 -57.3 12 -10.7 2.7 -21.8 5.2 -24.6 5.5 l-5.1 0.7 -0.7 23.2 c-0.4 12.7 -1.1 34.5 -1.7 48.5 -0.6 13.9 -0.8 25.5 -0.5 25.8 0.3 0.3 4.7 0.1 9.8 -0.6 25.8 -3.1 90.7 -5.5 119.3 -4.5 15.5 0.6 18.5 0.9 21.8 2.7 3.3 1.9 3.7 2.5 3.7 6.1 0 3.5 -0.5 4.4 -3.4 6.4 l-3.4 2.3 -17.3 -1.7 c-21.7 -2 -78.6 -1.5 -102.9 1 -66.6 6.9 -98.1 12.1 -124.6 20.7 -6.6 2.1 -12.3 3.9 -12.5 3.9 -0.3 0 -1.5 -0.7 -2.7 -1.6z"/>
  <path d="M1109 449.8 c-4.2 -4.5 -4.3 -5.5 -0.6 -8.3 4.2 -3.2 28.7 -17 42.7 -24 5.9 -3 10.9 -6.1 11.3 -7 0.3 -0.9 0.6 -20.6 0.6 -43.7 l0 -42.1 -24.9 0.6 -25 0.7 -3 -2.6 c-4 -3.4 -4.2 -7 -0.3 -8.5 1.5 -0.6 10.6 -1.5 20.2 -2 9.6 -0.6 21.1 -1.3 25.5 -1.7 l8 -0.7 0.3 -31 c0.2 -22.3 0 -32.5 -0.9 -36.4 l-1.3 -5.4 3.3 -2.8 c3.3 -2.7 3.4 -2.7 6.7 -1.2 1.8 0.9 3.6 2.3 3.9 3.2 0.4 0.9 0.9 18 1.2 38 l0.6 36.3 5.6 -0.6 c3.1 -0.3 10.6 -0.9 16.6 -1.2 9.7 -0.6 11.3 -0.5 12.8 1 2.1 2.1 2.2 4.6 0.3 7.1 -1 1.5 -4.1 2.2 -14.7 3.6 -7.4 1 -15.8 1.8 -18.8 1.8 l-5.4 0.1 0.8 4.3 c1.9 11.5 2.4 20.4 2.5 46.5 0 17.8 0.4 28.2 1 28.2 0.5 0 3.9 -1.6 7.6 -3.5 3.6 -1.9 7.2 -3.5 8 -3.5 2.8 0 6.4 4.7 6.4 8.3 0 3.9 -1.5 5.7 -4.7 5.7 -4.2 0 -60.1 29.6 -74.8 39.6 -5.8 4 -8.6 4.3 -11.5 1.2z"/>
  <path d="M881.6 437.5 c-2.2 -2.3 -2 -4.6 1.3 -12.8 5 -12.6 16.8 -38.1 20.5 -44.4 2 -3.4 3.6 -7 3.6 -8.1 0 -1.9 -6.7 -12 -14.2 -21.5 -2.1 -2.7 -3.8 -5.4 -3.8 -6 0 -0.7 -2 -3.9 -4.5 -7.2 -2.5 -3.3 -4.5 -6.2 -4.5 -6.6 0 -0.3 0.9 -1.4 2.1 -2.5 1.4 -1.3 3.6 -1.8 7.4 -1.8 6.1 0 8.3 1.5 13.1 8.8 4 5.9 11.6 13.6 13.5 13.6 2.6 0 4.7 -3.2 9.5 -14 6.8 -15.8 9.4 -23.7 9.4 -28.8 0.1 -6.8 4.4 -11.2 10.9 -11.2 l3.4 0 -0.6 10.8 c-0.5 9.1 -1.1 12.3 -4.5 21.7 -5.4 15 -9.7 25 -12.1 28.4 -2.9 4 -5 12.3 -3.3 12.8 0.6 0.3 1.2 1.1 1.2 1.8 0 0.7 1.5 3.5 3.3 6.2 1.8 2.7 4.2 6.7 5.4 9 2.9 5.5 12.8 21.4 15.1 24.3 1.7 2.1 1.7 2.8 0.6 7.4 -0.6 2.8 -2.6 8.2 -4.4 12 l-3.1 6.8 -2.9 -3.8 c-5.2 -7.2 -19 -34.9 -19 -38.3 0 -2.5 -0.5 -3.4 -2.7 -4.2 -5.3 -2 -6.3 -1.1 -11.5 10.5 -7.2 15.9 -18.6 35.6 -21.1 36.5 -5.5 2.1 -6.5 2.1 -8.1 0.6z"/>
  <path d="M621.6 407 c-5.8 -4.5 -12.6 -8.9 -15 -10 -2.5 -1 -5.2 -3.1 -6.2 -4.5 -1.6 -2.5 -1.6 -2.7 0.3 -5.3 3.5 -4.8 6.6 -5.1 13.6 -1.4 8.1 4.1 22.2 15.3 24.2 19.1 2.1 4.2 -0.5 10.1 -4.6 10.1 -1 0 -6.5 -3.6 -12.3 -8z"/>
  <path d="M699.7 387.4 c-0.3 -0.3 2.8 -5.6 6.8 -11.7 9.9 -15.2 19.3 -32.1 31.8 -57.7 11.3 -23 15.3 -29.5 19.3 -31 3.4 -1.3 8.1 1.2 9 4.6 0.9 3.5 -0.9 7.1 -14.3 28.4 -6 9.6 -15.2 24.5 -20.3 33 -6.4 10.5 -11.8 17.9 -16.6 23 -6.8 7.1 -14.4 12.6 -15.7 11.4z"/>
  <path d="M545 287 c-2 -2 -2.5 -4.5 -1.4 -7.4 0.3 -0.9 3.2 -2.3 6.3 -3.2 3.1 -0.9 16.1 -5 29 -9.1 25.5 -8.2 27.5 -8.4 31.3 -3.2 1.8 2.4 1.8 2.9 0.5 6.2 -1.3 3 -2.2 3.7 -5.4 4.2 -10.4 1.7 -20.3 4.2 -36 9.1 -9.5 3 -18.4 5.4 -19.8 5.4 -1.4 0 -3.4 -0.9 -4.5 -2z"/>
 </g>
 <g fill="#fe4d00">
  <path d="M212.1 545.1 c-25.2 -25.7 -41 -41.1 -42 -40.9 -0.9 0.2 -2.5 2.1 -3.7 4.3 -1.1 2.2 -8.8 17.1 -17.1 33 -8.3 16 -15.9 30.4 -16.9 32.1 -1.8 3.1 -2.1 3.2 -10.4 3.9 -4.7 0.4 -9.6 0.9 -10.9 1.2 -2.5 0.6 -2.5 0.6 0.9 -5.3 1.8 -3.2 4.3 -7.7 5.6 -9.9 1.2 -2.2 6.5 -11.6 11.8 -20.9 5.3 -9.2 9.6 -17 9.6 -17.3 0 -0.2 1.6 -2.9 3.5 -5.9 1.9 -3 3.5 -5.6 3.5 -5.8 0 -0.8 19.3 -34.2 20.6 -35.7 0.9 -1.1 4 -1.8 8.7 -2.2 10.4 -1 52.3 -5.2 79.7 -8.2 12.9 -1.4 38.8 -4.1 57.5 -6 37.3 -3.9 100.3 -10.6 121.4 -12.9 7.4 -0.9 13.6 -1.4 13.8 -1.2 0.2 0.2 -12.5 12.8 -28.2 28.2 -15.7 15.3 -28.5 28.5 -28.5 29.2 0 0.8 3.1 4.9 7 9.2 l7 7.7 -7.8 1.2 c-4.2 0.7 -16.2 2.6 -26.7 4.2 -10.4 1.7 -26.2 4.1 -35 5.5 -8.8 1.4 -18.7 2.9 -22 3.5 -11.7 1.9 -51.8 7.9 -53 7.9 -0.7 0 -2.1 6.8 -3.9 18.3 -1.5 10 -3 19.5 -3.4 21.1 -0.7 2.7 -2 1.5 -41.1 -38.3z"/>
  <path d="M120.5 480.4 c-8 -2.1 -62.2 -15.4 -87.2 -21.5 l-9.2 -2.2 3.8 -3.1 c2.1 -1.7 9.3 -7.6 16 -13.1 7 -5.7 12.1 -10.6 12.1 -11.6 0 -1.7 -4.1 -12.2 -23.5 -59.9 -4.8 -11.8 -9.5 -23.5 -10.5 -26 -1 -2.5 -5.8 -14.6 -10.8 -26.9 -5.1 -12.4 -8.9 -22.7 -8.7 -23 0.3 -0.2 1.5 0.1 2.8 0.7 1.2 0.6 10.1 4.5 19.7 8.7 9.6 4.3 25.4 11.3 35 15.7 9.6 4.4 21.6 9.8 26.5 12 5 2.2 9.5 4.6 10.2 5.2 1.5 1.5 11.9 23.9 35.8 77.6 4.1 9.1 9.8 21.9 12.7 28.4 l5.4 12 -8.5 14.8 c-6.8 11.9 -8.8 14.8 -10.5 14.7 -1.2 0 -6.1 -1.2 -11.1 -2.5z"/>
  <path d="M183 448.4 c0 -0.3 1.5 -3.1 3.4 -6.2 4 -6.9 14.1 -24.4 18.6 -32.7 1.8 -3.3 8.5 -15 14.8 -26 6.3 -11 12.8 -22.5 14.4 -25.5 3.1 -5.5 20.4 -36.1 36.3 -64 4.5 -8 16 -28.2 25.5 -45 9.5 -16.8 21.9 -38.6 27.5 -48.5 5.7 -9.9 11.3 -19.8 12.5 -22 7.7 -13.8 13.4 -23.4 13.7 -23.2 0.3 0.4 -1.2 44.8 -3.1 87.2 -0.7 16 -1.1 29.2 -1 29.4 0.2 0.2 11.7 -0.6 25.6 -1.7 13.9 -1.2 25.3 -2 25.5 -1.9 0.1 0.2 -3.1 4.1 -7.1 8.7 -38.5 44.4 -106.6 124.6 -106.6 125.7 0 2.1 2 1.6 19.1 -5.3 93 -37.5 90.1 -36.4 89.4 -33.6 -1.2 6 -6.5 35.5 -6.5 36.7 0 0.8 3 2.2 7.3 3.5 3.9 1.1 11.9 3.6 17.7 5.5 5.8 1.8 16.2 5 23.3 7.1 7 2.1 12.4 4.1 12 4.4 -0.5 0.4 -5.7 1.2 -11.8 1.9 -6 0.6 -25.8 2.7 -44 4.6 -18.1 1.9 -37 3.9 -42 4.5 -4.9 0.5 -13.9 1.4 -20 2 -6 0.5 -25.8 2.5 -44 4.4 -18.1 1.9 -35.5 3.7 -38.5 4 -3 0.3 -17.9 1.9 -33 3.5 -31.2 3.5 -29 3.3 -29 2.5z"/>
  <path d="M175.2 358.3 c-3.9 -4.9 -12.6 -15.5 -19.3 -23.8 -6.7 -8.2 -14.5 -17.8 -17.3 -21.1 -2.8 -3.4 -9.4 -11.5 -14.6 -17.9 -5.2 -6.5 -12 -14.8 -15 -18.4 -20.2 -24 -21.4 -25.8 -30.5 -45.6 -4.8 -10.4 -9.4 -20.5 -10.2 -22.3 -1.3 -3.2 10.8 7.2 39.7 33.7 3 2.8 6.2 5 7 5 0.8 0 6.5 -4.5 12.5 -10 6.1 -5.5 12.6 -11.3 14.6 -12.9 l3.5 -2.9 3.3 20.2 c1.8 11.1 4.8 29.9 6.7 41.7 1.9 11.8 4.3 27 5.4 33.6 1.1 6.7 2 13.8 2 15.8 0 2.8 0.4 3.6 1.8 3.6 1.3 0 2.4 -2.1 4.3 -8.3 1.5 -4.5 14.1 -42.2 28.1 -83.8 l25.4 -75.7 9.2 18.4 9.1 18.3 -1.8 5.3 c-1.1 2.9 -4 11.2 -6.6 18.3 -2.6 7.2 -5.9 16.6 -7.5 21 -1.5 4.4 -4.6 13 -6.8 19 -2.2 6.1 -6.5 18.2 -9.7 27 -13.5 37.9 -24.8 69.1 -25.5 69.8 -0.3 0.4 -3.8 -3.2 -7.8 -8z"/>
  <path d="M41.6 281.4 c-6.6 -2.9 -12.1 -5.5 -12.3 -5.7 -0.2 -0.2 2.6 -12.5 6.2 -27.3 3.6 -14.8 6.8 -28 7.1 -29.4 l0.6 -2.5 1.5 2.9 c0.8 1.5 4.4 9.4 8 17.5 3.5 8 6.9 15.2 7.5 15.8 0.7 0.9 0.3 5 -1.2 13.5 -1.2 6.8 -2.5 14.1 -2.8 16.2 -0.4 2.2 -1.2 4.1 -1.7 4.2 -0.6 0.1 -6.4 -2.2 -12.9 -5.2z"/>
 </g>
</svg>
