
<?xml version="1.0" encoding="UTF-8"?>
<svg version="1.1" xmlns="http://www.w3.org/2000/svg" width="1690" height="721">
<path d="M0 0 C0.33 0 0.66 0 1 0 C1.12212415 14.92840521 0.75999475 29.79307391 0.125 44.70703125 C0.03494442 46.89660633 -0.05472913 49.08619715 -0.14404297 51.27580261 C-0.37699468 56.96222838 -0.61503792 62.64842926 -0.85424805 68.33459473 C-1.09869723 74.16759442 -1.33818436 80.00079779 -1.578125 85.83398438 C-2.04730614 97.22285756 -2.52188194 108.61149873 -3 120 C0.02072751 119.84553192 3.04138353 119.68983598 6.06201172 119.53344727 C6.90950485 119.49023598 7.75699799 119.44702469 8.63017273 119.40250397 C16.51948654 118.99234342 24.38101095 118.35556404 32.25 117.66210938 C38.19435012 117.15918408 44.0341523 116.90697743 50 117 C46.51218781 121.9017901 42.78709255 126.41274733 38.6875 130.8125 C34.4060555 135.41092845 30.37506771 140.14204236 26.4296875 145.03515625 C21.97011377 150.47698335 17.31704245 155.75334924 12.69384766 161.05615234 C-3.19178031 179.18081497 -3.19178031 179.18081497 -18.625 197.6875 C-22.42964818 202.37806806 -26.45608892 206.82090776 -30.54296875 211.265625 C-33.66547096 214.74058772 -36.5892643 218.35426108 -39.5234375 221.98828125 C-42.43323959 225.52685761 -45.42717339 228.98445259 -48.4375 232.4375 C-54.05417634 238.88136857 -59.56027723 245.40602454 -65 252 C-52.5885419 247.35734311 -40.27073652 242.52196801 -28.00976562 237.49536133 C-17.67362905 233.26149857 -7.3056674 229.11015324 3.07037354 224.97521973 C10.39875815 222.05457505 17.72318851 219.12853088 25.01171875 216.109375 C26.55218872 215.47153076 26.55218872 215.47153076 28.1237793 214.82080078 C29.98271887 214.04793888 31.83979657 213.27057648 33.69458008 212.48779297 C34.89763794 211.98723389 34.89763794 211.98723389 36.125 211.4765625 C36.80820312 211.18861816 37.49140625 210.90067383 38.1953125 210.60400391 C40 210 40 210 43 210 C42.35782303 218.24406667 40.98123941 226.30761172 39.5 234.4375 C39.27441406 235.70271484 39.04882812 236.96792969 38.81640625 238.27148438 C37.13649644 247.59051067 37.13649644 247.59051067 36 251 C36.89976562 251.20753906 37.79953125 251.41507813 38.7265625 251.62890625 C48.69875697 253.99341996 58.40813365 256.96835724 68.15625 260.12109375 C74.27374832 262.09826755 80.41363875 263.9979071 86.5625 265.875 C87.53195557 266.17317627 88.50141113 266.47135254 89.50024414 266.77856445 C90.86330688 267.19368286 90.86330688 267.19368286 92.25390625 267.6171875 C93.44995483 267.98239502 93.44995483 267.98239502 94.67016602 268.35498047 C97.09736346 269.02695528 99.52544502 269.53552397 102 270 C102 270.66 102 271.32 102 272 C71.98950269 275.73970402 41.93377831 278.8975804 11.84230042 281.9090271 C0.22472783 283.07324222 -11.38800963 284.28156023 -23 285.5 C-35.71786163 286.83330581 -48.43713823 288.15032332 -61.16015625 289.43359375 C-62.98553673 289.61782898 -62.98553673 289.61782898 -64.84779358 289.80578613 C-75.38843772 290.86957601 -75.38843772 290.86957601 -79.7772522 291.31182861 C-93.75641543 292.72245693 -107.7299316 294.17326639 -121.6953125 295.71484375 C-122.96392624 295.85472214 -124.23253998 295.99460052 -125.53959656 296.13871765 C-131.6073835 296.80919743 -137.67437962 297.48604993 -143.74047852 298.17163086 C-145.91421723 298.41397181 -148.08796355 298.65624448 -150.26171875 298.8984375 C-151.23605865 299.01062119 -152.21039856 299.12280487 -153.21426392 299.23838806 C-158.51557146 299.82516954 -163.6661772 300.11031449 -169 300 C-167.97646498 296.11056692 -166.43860432 292.91968488 -164.3515625 289.51953125 C-160.8359093 283.73785961 -157.41155274 277.9060876 -154 272.0625 C-153.40960938 271.05509766 -152.81921875 270.04769531 -152.2109375 269.00976562 C-148.88659073 263.31663873 -145.65278841 257.58628788 -142.51416016 251.78881836 C-135.31435821 238.52804157 -127.97162822 225.32889585 -120.0625 212.4765625 C-117.20333832 207.74817 -114.62341061 202.86155935 -112 198 C-106.1254916 187.13136454 -100.24846705 176.28667544 -93.92407227 165.671875 C-88.34466933 156.27221171 -83.0836981 146.69086837 -77.75830078 137.14599609 C-69.9417793 123.16047877 -62.00231775 109.24490044 -54.04119873 95.34136963 C-48.64201834 85.90903541 -43.3109841 76.43994883 -38.01245117 66.95068359 C-32.8953437 57.79329242 -27.69993507 48.6821419 -22.48095703 39.58251953 C-19.9215479 35.11937582 -17.36640701 30.653794 -14.8125 26.1875 C-14.31830566 25.32326416 -13.82411133 24.45902832 -13.31494141 23.56860352 C-8.83916462 15.73338761 -4.40956567 7.87263365 0 0 Z " fill="#FD4E04" transform="translate(350,150)"/>
<path d="M0 0 C0 3 0 3 -1.52880859 4.90112305 C-2.5780249 5.94586792 -2.5780249 5.94586792 -3.6484375 7.01171875 C-4.40640625 7.76904297 -5.164375 8.52636719 -5.9453125 9.30664062 C-6.74710937 10.09232422 -7.54890625 10.87800781 -8.375 11.6875 C-9.1690625 12.48478516 -9.963125 13.28207031 -10.78125 14.10351562 C-16.73321883 20 -16.73321883 20 -19 20 C-19.3403125 20.86625 -19.3403125 20.86625 -19.6875 21.75 C-21.3408693 24.58434736 -23.42963944 25.96762189 -26 28 C-27.68732277 29.98260426 -29.35366057 31.9832342 -31 34 C-34.46023887 37.56027979 -38.06916855 40.91972393 -41.75 44.25 C-46.99043217 49.01514095 -52.04734948 53.93478924 -57 59 C-55.34192354 63.07610464 -52.45848322 66.01878864 -49.5 69.1875 C-49.00113281 69.73341797 -48.50226563 70.27933594 -47.98828125 70.84179688 C-45.30710825 73.81519319 -45.30710825 73.81519319 -42 76 C-42 76.66 -42 77.32 -42 78 C-53.87474954 79.85577191 -65.74976539 81.70983468 -77.625 83.5625 C-78.50296989 83.69947674 -79.38093979 83.83645348 -80.28551483 83.97758102 C-103.8095823 87.64728208 -127.33551671 91.30198871 -150.87744141 94.85571289 C-151.70142426 94.98022324 -152.5254071 95.10473358 -153.37435913 95.23301697 C-154.95111429 95.47111945 -156.52795401 95.70866281 -158.10488892 95.9455719 C-162.14158396 96.55487365 -166.17342095 97.18710505 -170.20214844 97.84716797 C-171.06158051 97.98690536 -171.92101257 98.12664276 -172.80648804 98.27061462 C-174.43983753 98.53728896 -176.07256464 98.80781707 -177.70449829 99.08302307 C-181.85357213 99.75891428 -185.77822545 100.14128481 -190 100 C-190.0424585 100.67192383 -190.08491699 101.34384766 -190.12866211 102.03613281 C-190.77992592 111.0318553 -192.12631362 119.85503914 -193.5625 128.75 C-193.79923166 130.23691498 -194.03556232 131.72389385 -194.27148438 133.2109375 C-194.84304781 136.80803815 -195.41998888 140.4042506 -196 144 C-196.66 144 -197.32 144 -198 144 C-199.46508789 142.51367188 -199.46508789 142.51367188 -201.16015625 140.46875 C-204.73326051 136.26922235 -208.51515257 132.37163803 -212.4375 128.5 C-213.12126709 127.82001953 -213.80503418 127.14003906 -214.50952148 126.43945312 C-216.67057055 124.29049074 -218.83484726 122.14482721 -221 120 C-223.85716017 117.16966163 -226.71083454 114.33587327 -229.5625 111.5 C-230.52530884 110.54963867 -230.52530884 110.54963867 -231.50756836 109.58007812 C-234.60648375 106.49773879 -237.58870667 103.36918361 -240.44360352 100.05859375 C-244.21484821 95.69207703 -248.2471306 91.62625495 -252.33984375 87.5625 C-253.10680069 86.79695801 -253.87375763 86.03141602 -254.66395569 85.24267578 C-257.08610881 82.82606803 -259.51173612 80.41298274 -261.9375 78 C-263.59202893 76.35049314 -265.24632802 74.70075571 -266.90039062 73.05078125 C-270.93094202 69.03118629 -274.96434272 65.01446831 -279 61 C-281.99684737 63.82919885 -283.45160262 66.64049012 -285.25 70.375 C-285.9575804 71.82131968 -286.66741021 73.26654004 -287.37890625 74.7109375 C-287.78512207 75.53561523 -288.19133789 76.36029297 -288.60986328 77.20996094 C-292.04273542 84.09982093 -295.56854305 90.94532182 -299.16601562 97.75073242 C-299.82856284 99.00676784 -300.49067206 100.26303439 -301.15234375 101.51953125 C-301.48003754 102.14170029 -301.80773132 102.76386932 -302.14535522 103.40489197 C-304.32331948 107.58395635 -306.29073535 111.82224983 -308.19140625 116.13671875 C-315.23510694 131.56192944 -315.23510694 131.56192944 -320.31787109 134.20556641 C-325.91287752 135.81332687 -331.27036823 135.55225366 -337 135 C-338.99992323 134.98247603 -341.00016487 134.97431993 -343 135 C-335.10911278 118.4434839 -325.82579869 102.5776189 -316.42260742 86.8425293 C-313.68883697 82.25044655 -311.12052252 77.58004172 -308.57299805 72.88232422 C-304.3309842 65.10935892 -299.91488326 57.43145835 -295.54492188 49.72998047 C-294.18408257 47.32528623 -292.83181084 44.91612615 -291.484375 42.50390625 C-291.12134277 41.85784424 -290.75831055 41.21178223 -290.38427734 40.54614258 C-289.44875555 38.88125776 -288.51717664 37.21415906 -287.5859375 35.546875 C-284.36645434 30.37667052 -284.36645434 30.37667052 -281.14910889 29.48979187 C-280.45118225 29.42572647 -279.75325562 29.36166107 -279.03417969 29.2956543 C-278.22878754 29.21491165 -277.42339539 29.13416901 -276.59359741 29.05097961 C-275.71192902 28.97614853 -274.83026062 28.90131744 -273.921875 28.82421875 C-272.98808014 28.73379807 -272.05428528 28.64337738 -271.0921936 28.55021667 C-269.05393461 28.35423785 -267.01508573 28.16432327 -264.97576904 27.97967529 C-260.57884709 27.58142237 -256.18484074 27.15462693 -251.79049683 26.72900391 C-249.46277273 26.50363216 -247.13490852 26.27970341 -244.80691528 26.05712891 C-232.83173288 24.90644898 -220.87563816 23.59468485 -208.91888428 22.26797485 C-178.51246925 18.89626304 -178.51246925 18.89626304 -163.625 17.5 C-143.41062134 15.6037915 -123.22576525 13.4165759 -103.03619385 11.27519226 C-94.67571935 10.38851762 -86.31480891 9.50609082 -77.9535675 8.62667847 C-72.79558832 8.08413715 -67.63775646 7.54020161 -62.47996426 6.99588585 C-58.93255956 6.62156144 -55.38510227 6.24775577 -51.8374939 5.87536621 C-34.54024415 4.05904071 -17.26128824 2.133265 0 0 Z " fill="#FD4E04" transform="translate(450,445)"/>
<path d="M0 0 C18.45818686 7.34587755 36.49320856 15.67634143 54.57421875 23.89453125 C55.28830902 24.21895706 56.00239929 24.54338287 56.73812866 24.87763977 C60.29826769 26.4958459 63.85646646 28.1180956 67.41113281 29.74829102 C73.20894558 32.40297332 79.00304384 35.03943902 84.91015625 37.4453125 C85.74844971 37.79231201 86.58674316 38.13931152 87.45043945 38.49682617 C88.9050329 39.09185203 90.3678025 39.66757966 91.84057617 40.21606445 C101.69398529 44.2745461 104.88332895 56.98164624 108.9375 66.0625 C109.59817335 67.53100516 110.25939728 68.99926273 110.92114258 70.46728516 C112.28298161 73.49041876 113.64172802 76.51491326 114.99804688 79.54052734 C116.87967705 83.73583632 118.77349846 87.92552796 120.671875 92.11328125 C126.76431808 105.55826907 132.82175489 119.01815929 138.78466797 132.52124023 C141.07260551 137.69733862 143.38595918 142.85695559 145.78125 147.984375 C146.21010498 148.90968018 146.63895996 149.83498535 147.08081055 150.78833008 C147.87713724 152.5011033 148.68268752 154.2096315 149.49926758 155.9128418 C149.84626709 156.66218994 150.1932666 157.41153809 150.55078125 158.18359375 C150.85669189 158.82868896 151.16260254 159.47378418 151.4777832 160.13842773 C152.52187482 163.8603532 150.72714055 166.76495645 148.92578125 169.9765625 C148.29941772 171.10010132 148.29941772 171.10010132 147.66040039 172.24633789 C147.21559326 173.03129639 146.77078613 173.81625488 146.3125 174.625 C145.86060303 175.42736084 145.40870605 176.22972168 144.94311523 177.05639648 C144.04359898 178.64868988 143.14139855 180.23947035 142.23632812 181.82861328 C141.18675673 183.67199558 140.14699478 185.52095765 139.109375 187.37109375 C138.59890625 188.25925781 138.0884375 189.14742187 137.5625 190.0625 C137.13066406 190.81660156 136.69882813 191.57070313 136.25390625 192.34765625 C135 194 135 194 132 195 C129.1630867 194.37289285 126.41486659 193.67079801 123.625 192.875 C116.00799303 190.73785416 108.34117823 188.87055748 100.64334106 187.05172729 C93.74395996 185.42004348 86.85407534 183.75248631 79.96875 182.0625 C78.94824554 181.81210968 77.92774109 181.56171936 76.87631226 181.30374146 C72.70590593 180.27984477 68.53582186 179.25463887 64.36572266 178.22949219 C50.25712287 174.76236712 36.13829912 171.34406656 22 168 C23.32878366 164.01364902 25.94514635 162.48961848 29.1875 160.0625 C35.12090689 155.52346303 40.83791885 150.7949937 46.4675293 145.88500977 C48.91269213 143.75885896 51.29922264 141.80051824 54 140 C53.43676096 135.99705793 52.57700782 132.53681495 51.0234375 128.80859375 C50.60731201 127.79949951 50.19118652 126.79040527 49.76245117 125.75073242 C49.30459229 124.65736572 48.8467334 123.56399902 48.375 122.4375 C47.63921825 120.657655 46.9034722 118.87779498 46.16880798 117.0974884 C45.63998067 115.81657177 45.11038833 114.53597075 44.58009338 113.25566101 C42.40863216 108.00910726 40.27124364 102.74921041 38.14453125 97.484375 C37.65273376 96.26736656 37.65273376 96.26736656 37.15100098 95.02577209 C35.84548335 91.79425534 34.54043801 88.56254927 33.23675537 85.33029175 C30.18117173 77.75812792 27.10738683 70.20067698 23.86328125 62.70703125 C21.52975632 57.30369001 19.36943419 51.85543642 17.28173828 46.35302734 C14.90809311 40.14357158 12.41341927 33.98171084 9.9375 27.8125 C9.41593268 26.51110095 8.89444807 25.20966875 8.37304688 23.90820312 C8.11802399 23.27196014 7.8630011 22.63571716 7.60025024 21.98019409 C6.85745177 20.12598524 6.11596575 18.27125078 5.37451172 16.41650391 C4.50625375 14.25835081 3.62885925 12.10383087 2.73876953 9.95458984 C2.37251465 9.06594238 2.00625977 8.17729492 1.62890625 7.26171875 C1.31123291 6.50205811 0.99355957 5.74239746 0.66625977 4.9597168 C0 3 0 3 0 0 Z " fill="#FD4E03" transform="translate(0,290)"/>
<path d="M0 0 C1.95263169 -0.05245942 3.90753742 0.00967953 5.859375 0.08618164 C8.55364288 2.86464539 8.82394085 4.75546292 9.234375 8.58618164 C8.8207797 12.44640441 8.48055094 14.21927045 5.859375 17.08618164 C-0.98878693 19.30176344 -7.86568776 19.64492837 -15.015625 20.08618164 C-22.14877664 20.52943847 -29.04879672 21.07000182 -36.02392578 22.68383789 C-38.140625 23.08618164 -38.140625 23.08618164 -42.140625 23.08618164 C-42.40617187 23.90344727 -42.67171875 24.72071289 -42.9453125 25.56274414 C-44.302266 29.56265282 -45.7725377 33.51057267 -47.265625 37.46118164 C-47.68134766 38.56526367 -47.68134766 38.56526367 -48.10546875 39.69165039 C-48.78284723 41.49020703 -49.46159533 43.28824774 -50.140625 45.08618164 C-49.35042969 45.05137695 -48.56023437 45.01657227 -47.74609375 44.98071289 C-40.42523259 44.80501222 -33.4929552 45.27635485 -26.265625 46.39868164 C-25.09036255 46.57524292 -25.09036255 46.57524292 -23.89135742 46.75537109 C-17.7348034 47.77440042 -11.65688253 49.13608205 -6.640625 53.02368164 C-1.42429218 63.67369448 -7.27068874 76.6208573 -10.33691406 87.22680664 C-11.57516612 91.63215539 -12.65333136 96.07020398 -13.703125 100.52368164 C-13.90365479 101.36713135 -14.10418457 102.21058105 -14.31079102 103.07958984 C-15.42817123 107.84339458 -16.46861792 112.61815943 -17.45703125 117.41040039 C-17.78562134 118.98640015 -17.78562134 118.98640015 -18.12084961 120.59423828 C-18.5423109 122.63164697 -18.95371833 124.67116816 -19.35375977 126.71289062 C-19.54381592 127.63271729 -19.73387207 128.55254395 -19.9296875 129.50024414 C-20.09162598 130.31444824 -20.25356445 131.12865234 -20.42041016 131.9675293 C-21.24946267 134.40634886 -22.13066752 135.49762214 -24.140625 137.08618164 C-26.83984375 137.81665039 -26.83984375 137.81665039 -29.828125 138.27368164 C-30.82199219 138.43223633 -31.81585937 138.59079102 -32.83984375 138.75415039 C-33.59910156 138.8637207 -34.35835937 138.97329102 -35.140625 139.08618164 C-36.8135178 145.43483729 -37.43126536 151.33693974 -37.41186523 157.88867188 C-37.41970535 159.29033852 -37.41970535 159.29033852 -37.42770386 160.72032166 C-37.4378809 162.7320076 -37.44371317 164.74371941 -37.44558525 166.75543022 C-37.44926726 169.93669188 -37.46603936 173.11764695 -37.48634338 176.29884338 C-37.54161337 185.33719206 -37.5725661 194.37558305 -37.59692383 203.4140625 C-37.61275288 208.95528857 -37.64290732 214.49629075 -37.68168831 220.0374012 C-37.6933638 222.14857684 -37.69926888 224.25979237 -37.69936943 226.37100029 C-37.69956041 229.3107249 -37.71774306 232.24982502 -37.73999023 235.18945312 C-37.73541306 236.06579407 -37.73083588 236.94213501 -37.72612 237.84503174 C-37.75535583 240.26170349 -37.75535583 240.26170349 -38.140625 244.08618164 C-42.2423917 246.82069277 -45.32718421 246.91634785 -50.140625 246.08618164 C-59.72366936 242.17310519 -64.12372079 233.73302174 -68.12890625 224.71118164 C-72.49621 214.23741098 -74.12608184 205.42675634 -73.140625 194.08618164 C-69.87266869 197.21107074 -67.03161039 200.58201628 -64.265625 204.14868164 C-63.85699219 204.65850586 -63.44835938 205.16833008 -63.02734375 205.69360352 C-58.95002478 210.94585084 -56.44858081 216.02159598 -53.140625 222.08618164 C-52.810625 196.01618164 -52.480625 169.94618164 -52.140625 143.08618164 C-59.67027767 144.34112375 -67.14270928 145.61307597 -74.59960938 147.20532227 C-79.24471903 148.12883071 -82.8393065 148.53258268 -86.94921875 145.94946289 C-93.92475308 139.30848656 -96.6097521 130.3711946 -99.7890625 121.51586914 C-100.36423354 119.91418099 -100.93975967 118.31262031 -101.515625 116.71118164 C-101.80348877 115.9085791 -102.09135254 115.10597656 -102.38793945 114.27905273 C-104.86509429 107.51872514 -107.90511694 101.16688029 -111.24609375 94.79711914 C-113.41307702 90.65029596 -115.28054729 86.37753719 -117.140625 82.08618164 C-117.12491455 82.67705566 -117.1092041 83.26792969 -117.09301758 83.87670898 C-116.72208841 100.19446222 -117.69853425 115.95182293 -120.140625 132.08618164 C-120.25043701 132.81293091 -120.36024902 133.53968018 -120.47338867 134.28845215 C-124.63897541 161.56944182 -130.21833401 188.55229364 -136.015625 215.52368164 C-136.18427567 216.30884659 -136.35292633 217.09401154 -136.52668762 217.90296936 C-137.65941616 223.17256037 -138.80002298 228.44040151 -139.9453125 233.70727539 C-140.09366169 234.39219748 -140.24201088 235.07711956 -140.3948555 235.78279686 C-140.81529342 237.72096937 -141.23936156 239.6583533 -141.66357422 241.59570312 C-142.02042801 243.22958229 -142.02042801 243.22958229 -142.38449097 244.89646912 C-143.19885143 248.33180685 -144.14698646 251.69881398 -145.140625 255.08618164 C-149.20463993 255.39879817 -151.17048305 254.8188865 -154.390625 252.33618164 C-155.41929688 251.57047852 -155.41929688 251.57047852 -156.46875 250.78930664 C-158.4790004 248.74148147 -158.7730673 247.92128857 -159.140625 245.08618164 C-158.74292803 242.69354488 -158.23409595 240.31870903 -157.6640625 237.96118164 C-157.49865967 237.26686035 -157.33325684 236.57253906 -157.1628418 235.85717773 C-156.62232522 233.59802471 -156.0688727 231.3422471 -155.515625 229.08618164 C-155.13928841 227.51867673 -154.76380402 225.95096698 -154.38916016 224.38305664 C-152.69705128 217.32934453 -150.9514662 210.29415428 -149.09228516 203.2824707 C-142.20060234 177.03455426 -138.97525752 149.90066337 -135.86308289 122.99633789 C-135.39612993 119.00286852 -134.80602714 115.05060368 -134.140625 111.08618164 C-133.91938725 108.39582135 -133.72902548 105.7176262 -133.578125 103.02368164 C-133.53494141 102.34885742 -133.49175781 101.6740332 -133.44726562 100.97875977 C-132.66688422 87.56363184 -133.60953989 74.52614363 -135.00976562 61.20019531 C-135.24329285 58.95344511 -135.46236246 56.7056421 -135.6796875 54.45727539 C-135.75563141 53.77499374 -135.83157532 53.0927121 -135.90982056 52.38975525 C-136.25897124 48.68770102 -136.2396743 46.22678577 -134.140625 43.08618164 C-130.26387489 42.78212281 -127.89200384 42.61798011 -124.5390625 44.70727539 C-121.70451994 47.51873535 -121.04976788 49.58952617 -119.953125 53.39868164 C-117.76658773 59.60428266 -115.32822413 62.23563775 -109.640625 65.42602539 C-104.24841538 69.00678959 -101.19347924 74.25762159 -98.390625 79.96118164 C-97.89018677 80.97027588 -97.89018677 80.97027588 -97.37963867 81.99975586 C-92.54965379 92.04853772 -88.91443916 102.60873504 -85.140625 113.08618164 C-84.58169002 114.6125755 -84.02189892 116.13865636 -83.4609375 117.66430664 C-80.140625 126.76409058 -80.140625 126.76409058 -80.140625 129.08618164 C-75.74742014 128.70316264 -71.35500966 128.31222017 -66.96313477 127.91430664 C-65.4727635 127.78035516 -63.98220467 127.64847216 -62.49145508 127.51879883 C-54.58041456 126.82926797 -46.85212641 126.08095488 -39.140625 124.08618164 C-37.80757517 123.75171633 -36.4743151 123.41808463 -35.140625 123.08618164 C-35.02468994 122.46573975 -34.90875488 121.84529785 -34.78930664 121.20605469 C-34.26274893 118.39485226 -33.73297414 115.58426548 -33.203125 112.77368164 C-32.92952148 111.30898438 -32.92952148 111.30898438 -32.65039062 109.81469727 C-32.47314453 108.8769043 -32.29589844 107.93911133 -32.11328125 106.97290039 C-31.86976929 105.67678833 -31.86976929 105.67678833 -31.62133789 104.35449219 C-31.140625 102.08618164 -31.140625 102.08618164 -30.140625 99.08618164 C-30.93412354 99.38508301 -31.72762207 99.68398438 -32.54516602 99.99194336 C-36.89324845 101.31523429 -41.17488812 101.96645709 -45.66796875 102.59399414 C-47.02868248 102.7895137 -47.02868248 102.7895137 -48.41688538 102.98898315 C-50.32856079 103.26223083 -52.24063582 103.53269554 -54.15307617 103.80053711 C-57.06612246 104.20949662 -59.97740363 104.62961556 -62.88867188 105.05102539 C-64.75250895 105.3160189 -66.61643843 105.58036341 -68.48046875 105.84399414 C-69.34421616 105.96896271 -70.20796356 106.09393127 -71.09788513 106.22268677 C-75.83181176 106.87812718 -80.36165025 107.21428701 -85.140625 107.08618164 C-86.71856173 102.94409772 -87.71950676 99.52427516 -87.140625 95.08618164 C-83.97361679 90.83985703 -80.14925509 89.9476226 -75.1796875 88.94555664 C-74.39212067 88.779328 -73.60455383 88.61309937 -72.79312134 88.4418335 C-63.44247261 86.58361161 -54.01382736 85.94339705 -44.515625 85.33618164 C-42.71866311 85.21112193 -40.92178687 85.08482508 -39.125 84.95727539 C-34.79772377 84.65272204 -30.46965507 84.364646 -26.140625 84.08618164 C-26.09236572 83.52423096 -26.04410645 82.96228027 -25.99438477 82.38330078 C-25.492995 77.20009563 -24.57858805 72.50909114 -23.078125 67.52368164 C-22.71589844 66.30551758 -22.35367187 65.08735352 -21.98046875 63.83227539 C-21.70332031 62.92606445 -21.42617187 62.01985352 -21.140625 61.08618164 C-41.73607657 59.93855682 -58.22241379 59.85810255 -76.83154297 69.9152832 C-81.67707673 72.37237561 -86.89345161 73.73662073 -92.140625 75.08618164 C-95.36268932 72.35981952 -96.9811288 70.59125294 -98.265625 66.52368164 C-98.140625 63.08618164 -98.140625 63.08618164 -96.1953125 61.09399414 C-92.35634655 58.57068404 -88.44494544 57.07840777 -84.140625 55.52368164 C-75.30157726 52.28795881 -70.15572259 50.30808527 -66.078125 41.52368164 C-65.58989258 40.52498047 -65.58989258 40.52498047 -65.09179688 39.50610352 C-63.24375122 35.66729184 -61.59026069 31.77240828 -60.01782227 27.81298828 C-59.66430191 26.92430557 -59.31078156 26.03562286 -58.94654846 25.12001038 C-58.68059372 24.44884689 -58.41463898 23.77768341 -58.140625 23.08618164 C-58.73736526 23.11123779 -59.33410553 23.13629395 -59.94892883 23.16210938 C-66.26125493 23.42636666 -72.5737944 23.68501876 -78.88647461 23.94067383 C-81.23028154 24.03629358 -83.57403407 24.13325808 -85.91772461 24.23168945 C-93.65763442 24.55618621 -101.39791742 24.83782576 -109.140625 25.08618164 C-110.11126892 25.12163086 -111.08191284 25.15708008 -112.08197021 25.19360352 C-114.72002282 25.28407543 -117.35704335 25.34648139 -119.99609375 25.39868164 C-121.13840202 25.44327515 -121.13840202 25.44327515 -122.30378723 25.48876953 C-125.94439213 25.52840169 -127.96584042 25.19485539 -131.0871582 23.25415039 C-134.04454528 20.13185848 -134.140625 18.39580893 -134.140625 14.08618164 C-133.20358243 12.05592274 -132.21137092 10.04921582 -131.140625 8.08618164 C-115.04219294 7.15926472 -98.95888346 6.79385755 -82.83764648 6.53393555 C-56.264301 6.34755393 -56.264301 6.34755393 -29.953125 3.08618164 C-19.89748071 1.27925773 -10.19661474 0.41051608 0 0 Z " fill="#0C0C0C" transform="translate(1366.140625,252.913818359375)"/>
<path d="M0 0 C2.73223633 1.36611816 3.06945666 2.8821457 4.35546875 5.63671875 C4.81018555 6.60029297 5.26490234 7.56386719 5.73339844 8.55664062 C6.45317871 10.10641602 6.45317871 10.10641602 7.1875 11.6875 C11.09765603 20.11746967 11.09765603 20.11746967 15.31640625 28.39453125 C15.81394409 29.32809448 15.81394409 29.32809448 16.3215332 30.28051758 C17.18599034 31.88145674 18.06884738 33.47242281 18.953125 35.0625 C20.95001671 40.66571852 18.7908705 46.11057358 16.84765625 51.515625 C16.40607178 52.7526416 15.9644873 53.9896582 15.50952148 55.26416016 C15.02736424 56.59283995 14.54501895 57.92145152 14.0625 59.25 C13.56342675 60.63964726 13.06481709 62.02946109 12.56665039 63.41943359 C9.01920028 73.29217703 5.36513882 83.12474666 1.69482422 92.95239258 C-1.26214169 100.90759598 -4.06892095 108.90642589 -6.8125 116.9375 C-11.84255185 131.65826733 -17.11786675 146.28516832 -22.42663574 160.90733337 C-25.43938271 169.20564058 -28.43639263 177.50961508 -31.43319702 185.81369019 C-32.82603226 189.67285847 -34.21967536 193.53173496 -35.61328125 197.390625 C-36.07983802 198.68261573 -36.5463912 199.97460776 -37.01293945 201.26660156 C-37.33866943 202.16862305 -37.66439941 203.07064453 -38 204 C-38.66 204 -39.32 204 -40 204 C-41.26953125 202.59375 -41.26953125 202.59375 -42.8125 200.5 C-46.2410705 195.96197558 -49.78119733 191.53221054 -53.375 187.125 C-54.22831909 186.07699219 -54.22831909 186.07699219 -55.09887695 185.0078125 C-58.93344678 180.30117577 -62.77756976 175.60237809 -66.625 170.90625 C-69.59088194 167.2769471 -72.54565306 163.63869437 -75.5 160 C-80.65220766 153.65476674 -85.81891905 147.32169206 -91 141 C-95.03418969 136.07768646 -99.0678681 131.15521652 -103.0703125 126.20703125 C-108.2593473 119.79531511 -113.46516784 113.40569494 -118.8125 107.125 C-128.62606778 95.58065974 -137.14914081 84.60260798 -143.3125 70.6875 C-143.77817383 69.65020752 -144.24384766 68.61291504 -144.72363281 67.54418945 C-145.68059071 65.41217703 -146.63486064 63.27895604 -147.58642578 61.14453125 C-148.9481239 58.11539968 -150.3405705 55.10275752 -151.74609375 52.09375 C-152.16914795 51.18020752 -152.59220215 50.26666504 -153.02807617 49.32543945 C-153.82754668 47.5995096 -154.6334539 45.87654312 -155.4465332 44.15698242 C-155.97573364 43.0022644 -155.97573364 43.0022644 -156.515625 41.82421875 C-156.82790039 41.15479248 -157.14017578 40.48536621 -157.46191406 39.7956543 C-158 38 -158 38 -157 35 C-156.7525 35.61875 -156.505 36.2375 -156.25 36.875 C-154.74877263 39.42708654 -153.6090051 39.71803031 -151 41 C-149.38769531 42.30932617 -149.38769531 42.30932617 -147.828125 43.79296875 C-146.9616333 44.60918701 -146.9616333 44.60918701 -146.07763672 45.44189453 C-145.4745166 46.01794434 -144.87139648 46.59399414 -144.25 47.1875 C-142.98776895 48.37714061 -141.72475468 49.5659508 -140.4609375 50.75390625 C-139.85862305 51.32125488 -139.25630859 51.88860352 -138.63574219 52.47314453 C-136.16985434 54.77488522 -133.62551042 56.97845639 -131.0703125 59.1796875 C-127.7276226 62.11873183 -124.46932989 65.15063604 -121.21044922 68.18212891 C-119.08684117 70.14557068 -116.98761841 72.0089377 -114.640625 73.703125 C-114.09921875 74.13109375 -113.5578125 74.5590625 -113 75 C-113 75.66 -113 76.32 -113 77 C-109.91190305 78.76462683 -108.76687864 79 -105 79 C-103.26884982 77.87669926 -103.26884982 77.87669926 -101.71484375 76.25390625 C-101.10680908 75.66770508 -100.49877441 75.08150391 -99.87231445 74.47753906 C-99.23382568 73.84557617 -98.59533691 73.21361328 -97.9375 72.5625 C-96.59876412 71.27483351 -95.25760181 69.98968509 -93.9140625 68.70703125 C-92.9226123 67.75884521 -92.9226123 67.75884521 -91.91113281 66.79150391 C-86.73766036 61.94186915 -81.41734448 57.09273677 -75 54 C-73.3727351 63.98144496 -71.74675221 73.9630979 -70.12228012 83.94499779 C-69.36743536 88.58305816 -68.61219541 93.22105336 -67.85595703 97.85888672 C-66.1450544 108.35295834 -64.44197963 118.84824424 -62.7512207 129.34558105 C-62.27586434 132.29543286 -61.79748468 135.24475702 -61.31518555 138.19348145 C-60.72880122 141.78670543 -60.15189475 145.38130635 -59.578125 148.9765625 C-59.33083649 150.47103409 -59.33083649 150.47103409 -59.07855225 151.99569702 C-58.12723582 158.04557161 -57.81130635 163.87825089 -58 170 C-57.34 170 -56.68 170 -56 170 C-55.88100342 168.98131836 -55.76200684 167.96263672 -55.6394043 166.91308594 C-55.02524653 163.15450604 -54.07765966 159.95913943 -52.76953125 156.390625 C-52.29882577 155.08824641 -51.82820849 153.78583593 -51.35766602 152.48339844 C-51.10687286 151.79693237 -50.85607971 151.11046631 -50.59768677 150.40319824 C-45.4483273 136.2822372 -40.6716732 122.05529291 -36.0625 107.75 C-31.41893686 93.35235027 -26.64871939 79.00929079 -21.70910645 64.71060181 C-16.44783921 49.46629741 -11.44170408 34.14300118 -6.4921875 18.79492188 C-6.20639328 17.91038834 -5.92059906 17.0258548 -5.62614441 16.11451721 C-5.09219652 14.46102695 -4.55979428 12.80703641 -4.0292511 11.15245056 C-2.80984274 7.37528139 -1.53781818 3.66318393 0 0 Z " fill="#FD4F06" transform="translate(222,166)"/>
<path d="M0 0 C4.29129413 3.51341604 5.74847862 6.21434181 6.75 11.625 C6.97171875 12.75164062 7.1934375 13.87828125 7.421875 15.0390625 C9.21511123 26.5712475 9.11992081 38.05057694 9.0625 49.6875 C9.05747418 51.4680977 9.05291319 53.24869677 9.04882812 55.02929688 C9.03876855 59.35290028 9.01982293 63.67643184 9 68 C20.15958612 66.14388748 31.15003615 63.91653186 42.140625 61.2421875 C43.60639244 60.88967291 45.07227648 60.53764286 46.53826904 60.18606567 C50.3380955 59.27357897 54.13647584 58.35522002 57.93450928 57.43530273 C62.57190707 56.31314464 67.2108608 55.19743916 71.84975815 54.0814991 C75.45178999 53.21497769 79.05352839 52.3473051 82.65435791 51.47579956 C83.95349098 51.16208808 85.25262427 50.8483775 86.55175781 50.53466797 C87.67962708 50.26169891 88.80749634 49.98872986 89.96954346 49.70748901 C102.41318733 46.80240154 102.41318733 46.80240154 108.375 49.5625 C111 52 111 52 112.0625 55.4375 C111.99154693 59.48182475 111.52268584 60.88646106 109 64 C106.078125 64.93359375 106.078125 64.93359375 102.25 65.4375 C100.69218313 65.67100172 99.13493201 65.90829505 97.578125 66.1484375 C96.25651367 66.34518066 96.25651367 66.34518066 94.90820312 66.54589844 C89.24982078 67.42942691 83.62559662 68.49223106 78 69.5625 C76.06338501 69.93012451 76.06338501 69.93012451 74.08764648 70.30517578 C60.6261068 72.91699991 47.33870692 76.24834758 34.06054688 79.66040039 C32.79479073 79.98007782 32.79479073 79.98007782 31.50346375 80.30621338 C29.93989126 80.70118471 28.3781328 81.10345937 26.81892395 81.51531982 C20.5971986 83.07695381 14.39236838 83.59589715 8 84 C8.00490952 84.6311673 8.00981903 85.26233459 8.01487732 85.91262817 C8.1259819 102.65407232 7.81103234 119.35249139 7.20043945 136.08251953 C7.06083712 139.92071893 6.92937174 143.75913907 6.79882812 147.59765625 C6.71140929 150.08334997 6.62353559 152.56902775 6.53515625 155.0546875 C6.47727684 156.74245804 6.47727684 156.74245804 6.41822815 158.46432495 C6.15085412 165.66533383 5.66115804 172.82449519 5 180 C6.16426514 179.79381546 6.16426514 179.79381546 7.35205078 179.58346558 C18.0049856 177.73791372 28.72203061 177.1119522 39.5 176.4375 C40.50699951 176.37307709 41.51399902 176.30865417 42.55151367 176.24227905 C62.02670788 175.00501199 81.48767115 174.24257619 101 174 C101.68664734 173.99139954 102.37329468 173.98279907 103.08074951 173.97393799 C112.38858195 173.8644211 121.69233096 173.8729974 131 174 C132.09586426 174.01256836 133.19172852 174.02513672 134.32080078 174.03808594 C137.38177249 174.0836541 140.44005526 174.15972093 143.5 174.25 C144.38421631 174.26401855 145.26843262 174.27803711 146.17944336 174.29248047 C151.47081149 174.50215321 154.97593827 175.22623876 159 179 C160.07301632 182.7418005 159.74970921 186.19955099 159 190 C157.0625 192.6875 157.0625 192.6875 154 194 C148.64081947 194.4519801 143.27084162 193.89201553 137.94322205 193.30436707 C123.47920967 191.71709512 109.03367961 191.64207216 94.49765396 191.68194199 C92.40520399 191.68758713 90.31276214 191.69040532 88.2203064 191.69302368 C67.14387638 191.73131734 46.28278153 192.38845149 25.32720947 194.74353027 C22.82003313 195.01983322 20.31152552 195.27964789 17.80224609 195.53613281 C-40.30165233 200.93147674 -40.30165233 200.93147674 -96.3112793 216.25976562 C-100.93082094 217.97622954 -104.21505029 218.2036125 -109 217 C-111.5 214.8125 -111.5 214.8125 -113 212 C-113 208.42889997 -112.59621716 206.69210639 -110.25732422 203.97705078 C-103.90364175 198.41225296 -94.94268152 196.08388867 -86.875 194.125 C-85.89217041 193.88233398 -84.90934082 193.63966797 -83.89672852 193.38964844 C-60.77069153 187.93606112 -34.83448697 181.82815818 -11 182 C-10.49367107 171.15755502 -9.98929247 160.31502107 -9.48720646 149.47237873 C-9.25385112 144.43426125 -9.01989668 139.39617329 -8.78442383 134.3581543 C-7.47015284 106.38101321 -7.47015284 106.38101321 -6.37890625 78.39453125 C-6.34015884 77.28298172 -6.30141144 76.17143219 -6.26148987 75.02619934 C-5.20280605 44.10724166 -5.20280605 44.10724166 -9.0715332 13.51635742 C-10.01268727 8.92177831 -10.46011599 5.22859808 -7.8125 1.1875 C-5.02372887 -0.63962591 -3.26191611 -0.52190658 0 0 Z " fill="#0D0D0D" transform="translate(1531,261)"/>
<path d="M0 0 C0.99 0.99 0.99 0.99 2 2 C1.89150461 8.77192088 -1.27126648 14.23680392 -4.25 20.1875 C-5.25547936 22.25314126 -6.25940533 24.31953943 -7.26171875 26.38671875 C-9.79212818 31.57478398 -9.79212818 31.57478398 -10.97509766 33.99462891 C-14.91807089 42.18350816 -16.03578022 50.01347167 -17 59 C-17.29452807 60.91951051 -17.60611318 62.83650839 -17.9375 64.75 C-18.10121094 65.72066406 -18.26492188 66.69132812 -18.43359375 67.69140625 C-18.7346034 69.44971779 -19.03683536 71.20783821 -19.34814453 72.96435547 C-24.77812277 103.78142882 -31.58868139 148.12190119 -17.890625 177.5625 C-16.7656902 180.64126892 -16.5161916 183.55416592 -16.1875 186.8125 C-15.22507545 194.6566859 -12.07088986 200.33231092 -8 207 C-7.50113281 207.92039062 -7.00226563 208.84078125 -6.48828125 209.7890625 C-0.68265339 220.3187218 7.60774807 226.20814667 19 230 C24.93450972 231.63331732 30.956711 232.84695945 37 234 C36.61183105 233.47212891 36.22366211 232.94425781 35.82373047 232.40039062 C31.79320089 226.68124461 29.25252008 221.14366498 27.125 214.5 C26.81820313 213.61441406 26.51140625 212.72882813 26.1953125 211.81640625 C24.28153151 205.9981703 23.59582791 201.12381956 24 195 C25 194 25 194 27.3125 193.625 C30 194 30 194 31.8671875 195.9375 C35.13600048 200.63118018 37.53252039 205.73671674 40.02539062 210.875 C44.22820414 219.18825751 49.52440781 224.3210741 57.375 229.3125 C64.01953951 233.70051234 71.407963 239.22388899 74 247 C74.24893485 250.42285422 74.3928302 253.06944321 73.046875 256.2578125 C70.62481279 258.31933873 70.07034688 258.22501286 67 258.05859375 C65.33057015 257.87517156 63.66381423 257.66632732 62 257.4375 C60.6553064 257.27350708 60.6553064 257.27350708 59.28344727 257.10620117 C56.51889399 256.75969107 53.7599916 256.38092983 51 256 C49.46750608 255.80942753 47.93495723 255.61929607 46.40234375 255.4296875 C25.6693971 252.67816987 -1.12532974 248.90304937 -15.91796875 232.765625 C-19.76092669 227.66090789 -22.85244959 222.12339876 -25.73901367 216.4309082 C-26.67780767 214.62111694 -27.67148911 212.83959166 -28.69262695 211.07495117 C-34.26089057 200.98390897 -36.26960099 191.0226053 -37.9375 179.6875 C-38.08475525 178.72434875 -38.2320105 177.76119751 -38.38372803 176.76885986 C-44.52346875 135.78732483 -44.57125678 88.12657061 -33 48 C-32.67147288 45.73420579 -32.3798293 43.46276163 -32.125 41.1875 C-30.87504097 31.98858275 -27.6058743 24.9301978 -23 17 C-23.66902344 17.15557373 -24.33804688 17.31114746 -25.02734375 17.47143555 C-42.49448304 21.46455254 -59.85872692 24.21549172 -77.66210938 26.17456055 C-85.77445216 27.08480233 -93.78051883 28.20018567 -101.76953125 29.8984375 C-102.49492599 30.04640778 -103.22032074 30.19437805 -103.96769714 30.34683228 C-107.61723962 31.16929215 -110.60094404 32.21419048 -113.8269043 34.13134766 C-117 36 -117 36 -120 36 C-120.33 35.34 -120.66 34.68 -121 34 C-122.01320313 34.83144531 -122.01320313 34.83144531 -123.046875 35.6796875 C-123.93890625 36.40414062 -124.8309375 37.12859375 -125.75 37.875 C-126.63171875 38.59429687 -127.5134375 39.31359375 -128.421875 40.0546875 C-132.44845387 43.09292428 -134.92583311 44.28189816 -140 44 C-140 39.04352596 -136.32771503 36.42909703 -133 33 C-120.06647782 20.21992638 -106.96345134 13.12550937 -88.8125 11.4375 C-86.5051188 11.19486036 -84.19782882 10.95135182 -81.890625 10.70703125 C-80.73626953 10.58924316 -79.58191406 10.47145508 -78.39257812 10.35009766 C-63.306013 8.79323709 -48.44324032 6.62536861 -33.54589844 3.77709961 C-11.04765957 -0.50163607 -11.04765957 -0.50163607 0 0 Z " fill="#0D0D0D" transform="translate(1010,237)"/>
<path d="M0 0 C3.31892307 0.56932793 4.85210324 1.80071008 7.00390625 4.34375 C8.01803847 9.16962056 7.95972602 13.18364973 7.19140625 18.03125 C6.24591908 24.43740796 5.50548653 30.83601474 4.87890625 37.28125 C4.7914917 38.17610107 4.70407715 39.07095215 4.61401367 39.99291992 C4.4085946 42.10966535 4.20594146 44.22667892 4.00390625 46.34375 C4.86556396 46.10140625 5.72722168 45.8590625 6.61499023 45.609375 C9.84985421 44.70555109 13.08727317 43.81229811 16.3269043 42.92578125 C17.72159994 42.54188165 19.11519196 42.15394672 20.50756836 41.76171875 C39.46747375 36.42818239 39.46747375 36.42818239 46.00390625 39.96875 C48.48559133 42.91575104 49.00390625 44.4952471 49.00390625 48.34375 C48.06640625 51.59375 48.06640625 51.59375 46.00390625 54.34375 C40.1796651 56.13433246 34.2787751 56.95922997 28.25390625 57.78125 C21.45051589 58.74707446 14.84749017 59.93844316 8.21875 61.79296875 C6.00390625 62.34375 6.00390625 62.34375 3.00390625 62.34375 C2.85820444 68.79509584 2.71625943 75.24651731 2.57666016 81.69799805 C2.52897779 83.88258642 2.48050389 86.06715769 2.43115234 88.25170898 C1.98777054 107.91885901 1.78309846 127.55677164 2.3762207 147.22241211 C2.44238926 149.43918259 2.50168912 151.65607143 2.56054688 153.87304688 C2.50433362 168.93565862 2.50433362 168.93565862 6.00390625 183.34375 C6.50390625 186.84375 6.50390625 186.84375 6.00390625 190.34375 C3.23427153 193.44310314 1.21691635 195.02028064 -2.80859375 196.09375 C-7.88383504 194.89957558 -11.15839902 191.76015406 -14.99609375 188.34375 C-15.63417969 187.78816406 -16.27226563 187.23257813 -16.9296875 186.66015625 C-29.33582087 175.07937895 -37.81461615 160.10003818 -45.85791016 145.3581543 C-46.82790176 143.64142312 -47.90232825 141.98439825 -48.99609375 140.34375 C-50.49381315 143.98222892 -51.96576873 147.63061993 -53.43359375 151.28125 C-53.85447266 152.30283203 -54.27535156 153.32441406 -54.70898438 154.37695312 C-57.16108756 160.5170195 -58.41640807 165.77832114 -58.99609375 172.34375 C-61.12109375 175.40625 -61.12109375 175.40625 -63.99609375 177.34375 C-68.37273485 178.12529305 -70.21381737 177.85971953 -73.93359375 175.40625 C-76.69774029 171.30191119 -76.81932184 168.08978787 -75.99609375 163.34375 C-74.40593217 159.18400046 -72.45567242 155.24485224 -70.41125488 151.29556274 C-68.76079118 148.10607101 -67.16638226 144.88884249 -65.5703125 141.671875 C-65.25591217 141.04102493 -64.94151184 140.41017487 -64.61758423 139.76020813 C-61.66944805 133.79344553 -59.20354149 127.70461651 -56.95092773 121.44750977 C-55.1645994 116.51225565 -55.1645994 116.51225565 -52.99609375 114.34375 C-45.95388347 113.66224578 -45.95388347 113.66224578 -42.96484375 115.7890625 C-40.17511074 119.4090732 -38.91213477 123.32177561 -37.37109375 127.59375 C-31.6012578 142.74094576 -23.44720263 154.89665131 -11.99609375 166.34375 C-12.06683105 165.18456055 -12.13756836 164.02537109 -12.21044922 162.83105469 C-13.04353457 148.0968341 -13.15180351 133.38629382 -13.12646484 118.63134766 C-13.12074493 115.25772185 -13.12416315 111.88417462 -13.12991714 108.51055145 C-13.14968696 94.75560213 -13.10343783 81.06069105 -11.99609375 67.34375 C-12.99874268 67.64144287 -14.0013916 67.93913574 -15.03442383 68.24584961 C-18.801756 69.36140016 -22.57298636 70.46325057 -26.34545898 71.5612793 C-27.96892698 72.03581663 -29.5913562 72.51392449 -31.21264648 72.99584961 C-54.36211495 79.8700211 -54.36211495 79.8700211 -61.12109375 77.03125 C-63.78854705 74.63054203 -63.96694334 73.6061037 -64.37109375 69.96875 C-63.99609375 66.34375 -63.99609375 66.34375 -62.22265625 64.296875 C-57.43719614 61.40010738 -52.43600944 60.58598084 -46.99609375 59.46875 C-35.16857831 56.90276361 -23.58720548 53.81370065 -11.99609375 50.34375 C-11.67439723 47.19861997 -11.36169268 44.0532006 -11.05859375 40.90625 C-10.96505615 39.93518311 -10.87151855 38.96411621 -10.77514648 37.96362305 C-9.97139292 29.11248914 -9.63520384 20.26888134 -9.51391602 11.38305664 C-9.48869873 10.37621826 -9.46348145 9.36937988 -9.4375 8.33203125 C-9.42404541 7.44040283 -9.41059082 6.54877441 -9.39672852 5.63012695 C-8.46122291 0.29130307 -5.01478544 -0.22164798 0 0 Z " fill="#0E0E0E" transform="translate(583.99609375,284.65625)"/>
<path d="M0 0 C2.9841679 2.7736446 3.93513103 4.35787011 4.34765625 8.44140625 C4.28071122 9.81676047 4.18321911 11.19081937 4.0625 12.5625 C4.00457275 13.3364209 3.94664551 14.1103418 3.88696289 14.90771484 C-0.20369675 61.26255018 -16.55981256 107.03617281 -31 151 C-29.99706909 151.63071411 -29.99706909 151.63071411 -28.97387695 152.27416992 C-22.29157989 156.49834252 -15.71049276 160.84682597 -9.1875 165.3125 C-8.22610107 165.96984131 -7.26470215 166.62718262 -6.27416992 167.30444336 C1.22097435 172.44157886 8.65910225 177.64491419 16 183 C16.71188477 183.51884766 17.42376953 184.03769531 18.15722656 184.57226562 C33.13839047 195.51009224 33.13839047 195.51009224 39.4296875 200.46875 C46.93354913 206.37146918 54.33853441 211.69082291 62.82495117 216.1105957 C67.13984394 218.37354958 70.77209113 220.54418226 73 225 C73.59291939 229.86193904 73.99491574 233.70359464 70.9375 237.6875 C67.04877373 239.42501599 65.08319463 239.14615989 61 238 C56.51446062 235.2677861 52.6074013 232.03298951 48.6875 228.5625 C41.37302016 222.19013386 33.71644567 216.32906102 25.97070312 210.49462891 C24.21265207 209.16128047 22.46951855 207.81215996 20.734375 206.44921875 C7.18576946 195.83614441 -7.05554917 186.19079352 -21.4375 176.75 C-22.90292236 175.78380737 -22.90292236 175.78380737 -24.39794922 174.7980957 C-25.31721191 174.19956787 -26.23647461 173.60104004 -27.18359375 172.984375 C-27.99368896 172.45553711 -28.80378418 171.92669922 -29.63842773 171.38183594 C-32.02928563 169.98286398 -34.40527224 168.9598793 -37 168 C-37.3623877 169.04752441 -37.72477539 170.09504883 -38.09814453 171.17431641 C-39.46849179 175.1310287 -40.84561875 179.08535518 -42.22460938 183.0390625 C-42.81592492 184.73733099 -43.40549904 186.43620702 -43.99316406 188.13574219 C-54.27125959 217.84750639 -54.27125959 217.84750639 -59 221 C-61.9375 221.4375 -61.9375 221.4375 -65 221 C-68.07156286 218.33259015 -68.94044763 216.81420782 -69.23828125 212.7421875 C-68.98834936 208.81702762 -68.17880125 205.86600338 -66.8125 202.1875 C-66.40644531 201.06730469 -66.00039063 199.94710937 -65.58203125 198.79296875 C-64.45626851 195.94176341 -63.11132849 193.27407909 -61.68261719 190.56323242 C-58.69934901 184.62480787 -56.58804699 178.49297998 -54.49609375 172.1953125 C-54.09093033 170.99494354 -53.68576691 169.79457458 -53.26832581 168.55783081 C-52.20102208 165.39137512 -51.14002872 162.22295242 -50.08215332 159.05334473 C-49.01392678 155.85796987 -47.93722823 152.66545369 -46.86132812 149.47265625 C-43.22004953 138.6553887 -39.60705542 127.82872024 -36 117 C-36.78536133 116.86964355 -37.57072266 116.73928711 -38.37988281 116.60498047 C-41.67451605 115.84425543 -42.60532658 114.70044115 -44.75 112.125 C-45.43835938 111.31675781 -46.12671875 110.50851562 -46.8359375 109.67578125 C-48.30425615 107.86026089 -49.74635116 106.02327692 -51.1640625 104.16796875 C-55.58195105 98.46217982 -59.4783721 94.53222841 -65.93359375 91.21875 C-68 90 -68 90 -70 87 C-69.85363616 83.56044964 -69.33404117 81.50774258 -67.4375 78.625 C-64.6894868 76.7929912 -62.57860412 76.17880715 -59.26171875 76.375 C-48.42109222 79.37068263 -38.73109292 93.53497896 -32 102 C-28.426936 90.96564734 -25.28586216 79.88310628 -22.5 68.625 C-22.21018753 67.45878616 -22.21018753 67.45878616 -21.91452026 66.26901245 C-17.2733751 47.52968666 -12.75768995 28.75298222 -11.80688477 9.40454102 C-11.43012522 3.47578607 -11.43012522 3.47578607 -9.16015625 0.96484375 C-5.87915061 -0.50063255 -3.54112092 -0.50587442 0 0 Z " fill="#0E0E0E" transform="translate(712,255)"/>
<path d="M0 0 C6.11270492 2.41290984 6.11270492 2.41290984 7.375 4.9375 C7.62029946 7.73014001 7.80186339 10.49812804 7.93359375 13.296875 C7.97584579 14.17309509 8.01809784 15.04931519 8.06163025 15.9520874 C8.59466711 28.35796624 8.48127051 40.77319335 8.4375 53.1875 C8.43247008 55.69791576 8.42790984 58.20833252 8.42382812 60.71875 C8.41295197 66.79168866 8.39633443 72.86458952 8.375 78.9375 C9.9367395 78.72637573 9.9367395 78.72637573 11.5300293 78.51098633 C19.08897529 77.51188465 26.5490176 76.59037406 34.1875 76.625 C34.94869141 76.60888672 35.70988281 76.59277344 36.49414062 76.57617188 C41.8312933 76.57146124 41.8312933 76.57146124 44.359375 78.2734375 C45.9917153 80.94796431 45.8112695 82.88361351 45.375 85.9375 C42.57888568 89.43184035 40.56132204 90.47633795 36.15625 90.984375 C35.14046875 91.10683594 34.1246875 91.22929687 33.078125 91.35546875 C31.49257812 91.51982422 31.49257812 91.51982422 29.875 91.6875 C28.84890625 91.81253906 27.8228125 91.93757813 26.765625 92.06640625 C19.61432639 92.88395421 12.56840313 93.08213947 5.375 92.9375 C5.684375 94.05125 5.99375 95.165 6.3125 96.3125 C8.60578961 105.58276289 8.56097275 115.10290728 8.69140625 124.6015625 C8.71218735 125.87478363 8.73296844 127.14800476 8.75437927 128.45980835 C8.8083206 131.81008869 8.85867644 135.16038226 8.90722656 138.51074219 C8.95787513 141.94340795 9.01333254 145.37599587 9.06835938 148.80859375 C9.17495688 155.51816675 9.27682025 162.22779882 9.375 168.9375 C10.19411865 168.5058252 11.0132373 168.07415039 11.85717773 167.62939453 C12.93427002 167.07364746 14.0113623 166.51790039 15.12109375 165.9453125 C16.1877124 165.3898877 17.25433105 164.83446289 18.35327148 164.26220703 C22.45691534 162.46319503 24.22545999 162.34831447 28.375 163.9375 C30.79884356 166.28054878 32.07793521 168.57076576 32.375 171.9375 C32 175 32 175 30.375 177.9375 C28.67163086 178.66308594 28.67163086 178.66308594 26.52734375 179.234375 C20.3966873 181.11758878 14.95178325 184.11006132 9.3125 187.125 C7.07352637 188.30844588 4.8339441 189.49074101 2.59375 190.671875 C1.51867188 191.23970703 0.44359375 191.80753906 -0.6640625 192.39257812 C-3.70836369 193.98099649 -6.77705633 195.50249194 -9.86865234 196.99584961 C-17.46951211 200.66976854 -24.76807066 204.81492191 -32.0625 209.0625 C-33.06998291 209.64894287 -34.07746582 210.23538574 -35.11547852 210.83959961 C-40.42077644 213.95940525 -45.57365649 217.17813709 -50.57446289 220.76904297 C-53.57649115 222.47968796 -56.31201894 223.29558574 -59.6875 222.375 C-62.49890183 220.28912122 -63.97074443 218.00093625 -65.625 214.9375 C-65.43918926 212.16088864 -64.89605944 211.18647065 -62.83642578 209.29467773 C-55.62247202 204.43406094 -48.13465356 200.15418605 -40.5 196 C-39.21049137 195.29237469 -37.92110411 194.58452817 -36.63183594 193.87646484 C-29.15530931 189.78430409 -21.64009646 185.78157122 -13.92919922 182.14477539 C-10.66697421 180.71665203 -10.66697421 180.71665203 -8.625 177.9375 C-8.50262246 175.31426082 -8.43932246 172.71581268 -8.41967773 170.09130859 C-8.40977814 169.28147018 -8.39987854 168.47163177 -8.38967896 167.63725281 C-8.35802601 164.95351104 -8.33329156 162.26975155 -8.30859375 159.5859375 C-8.2880275 157.7279107 -8.26703111 155.86988861 -8.24562073 154.01187134 C-8.1903661 149.11612765 -8.14097179 144.22034149 -8.09277344 139.32452393 C-8.04258315 134.33089407 -7.9868842 129.33732605 -7.93164062 124.34375 C-7.82401758 114.54171946 -7.72258183 104.73963528 -7.625 94.9375 C-11.98775108 95.07276158 -16.35049268 95.20832392 -20.71322632 95.34414673 C-22.19267534 95.39016546 -23.67212678 95.43610666 -25.15158081 95.48196411 C-34.84423911 95.78246399 -44.53596949 96.09920613 -54.2265625 96.4609375 C-58.81579351 95.75409043 -60.38951039 94.22157054 -63.625 90.9375 C-64.625 88.3125 -64.625 88.3125 -64.625 85.9375 C-62.625 82.9375 -62.625 82.9375 -60.77418518 82.2280426 C-55.40632006 81.16117789 -50.18099408 80.5577825 -44.71484375 80.33984375 C-43.90310196 80.30065323 -43.09136017 80.26146271 -42.25502014 80.22108459 C-39.69112572 80.0983808 -37.12692304 79.98605483 -34.5625 79.875 C-31.99462221 79.75870688 -29.42688545 79.64011533 -26.85926819 79.51820374 C-25.27108702 79.44331065 -23.68274031 79.37181656 -22.09422302 79.3044281 C-17.2257544 79.08128842 -12.45440635 78.59647467 -7.625 77.9375 C-7.60183966 69.77513585 -7.58406605 61.61278541 -7.57318783 53.45039654 C-7.5679671 49.66035998 -7.5608841 45.87034589 -7.54956055 42.08032227 C-7.53870296 38.42341198 -7.53271705 34.76652332 -7.53012276 31.10959816 C-7.5282737 29.71373975 -7.52466301 28.31788253 -7.51926994 26.92203331 C-7.51202156 24.96846036 -7.51159162 23.01486569 -7.51147461 21.0612793 C-7.509254 19.9487529 -7.50703339 18.8362265 -7.50474548 17.68998718 C-7.50279719 14.8465776 -7.50279719 14.8465776 -8.625 11.9375 C-9.39506645 5.9969874 -9.39506645 5.9969874 -7.4609375 3.3359375 C-5.03184874 1.10615859 -3.33761282 -0.07946697 0 0 Z " fill="#0C0C0C" transform="translate(1169.625,231.0625)"/>
<path d="M0 0 C1.22589844 0.01353516 1.22589844 0.01353516 2.4765625 0.02734375 C3.10304688 0.03894531 3.72953125 0.05054688 4.375 0.0625 C4.42955703 3.04191998 4.46893851 6.02031531 4.5 9 C4.51675781 9.83080078 4.53351563 10.66160156 4.55078125 11.51757812 C4.62267264 20.75562205 2.3741392 28.66763725 -0.875 37.25 C-1.18219971 38.07081055 -1.48939941 38.89162109 -1.8059082 39.73730469 C-8.6935761 57.9648801 -8.6935761 57.9648801 -12.875 65.0625 C-14.59647956 68.01360781 -15.66791138 70.79244723 -16.625 74.0625 C-15.965 74.0625 -15.305 74.0625 -14.625 74.0625 C-14.29886719 74.73796875 -13.97273437 75.4134375 -13.63671875 76.109375 C-13.19972656 77.00140625 -12.76273438 77.8934375 -12.3125 78.8125 C-11.88324219 79.69421875 -11.45398438 80.5759375 -11.01171875 81.484375 C-9.71852172 83.88862863 -8.26931729 85.89303426 -6.625 88.0625 C-5.74456349 89.63137752 -4.89272614 91.21648318 -4.0625 92.8125 C-1.34596985 97.86921482 1.58776717 102.75711378 4.625 107.625 C5.27964233 108.67929199 5.27964233 108.67929199 5.94750977 109.75488281 C7.61199027 112.40484711 9.15458031 114.84208031 11.375 117.0625 C11.38687233 124.13841115 9.02772061 130.5066412 5.9375 136.75 C5.637229 137.36198242 5.33695801 137.97396484 5.02758789 138.60449219 C2.76607828 142.93214057 2.76607828 142.93214057 -0.625 144.0625 C-4.02296394 138.17106612 -7.3032737 132.2191448 -10.5625 126.25 C-11.07490234 125.31607422 -11.58730469 124.38214844 -12.11523438 123.41992188 C-14.61278932 118.84688925 -17.07492157 114.25746242 -19.453125 109.62109375 C-19.85305664 108.8417749 -20.25298828 108.06245605 -20.66503906 107.25952148 C-22.01852115 104.161865 -22.40590759 101.42191693 -22.625 98.0625 C-25.595 97.5675 -25.595 97.5675 -28.625 97.0625 C-28.89014404 97.67432129 -29.15528809 98.28614258 -29.4284668 98.91650391 C-34.56884883 110.68253498 -39.97194111 122.23639426 -46.375 133.375 C-46.89280029 134.3045752 -47.41060059 135.23415039 -47.9440918 136.19189453 C-51.1719883 141.65921138 -53.39984491 144.40734112 -59.625 146.0625 C-63 145.875 -63 145.875 -65.625 145.0625 C-67.39402447 141.52445107 -67.10827113 137.80909573 -66.06445312 134.03662109 C-65.23332267 131.74255299 -64.32360097 129.49807935 -63.375 127.25 C-63.0258252 126.40195801 -62.67665039 125.55391602 -62.31689453 124.68017578 C-59.19334944 117.20056609 -55.86732932 109.80997415 -52.5 102.4375 C-52.00983398 101.36008545 -51.51966797 100.2826709 -51.01464844 99.17260742 C-48.26413478 93.23968506 -45.31253525 87.71683836 -41.63330078 82.30322266 C-40.3328022 79.41315584 -40.64015642 78.03910173 -41.625 75.0625 C-42.63122289 73.20157056 -42.63122289 73.20157056 -43.953125 71.5390625 C-44.65888672 70.59546875 -44.65888672 70.59546875 -45.37890625 69.6328125 C-45.87261719 68.99085938 -46.36632812 68.34890625 -46.875 67.6875 C-47.83895001 66.40916198 -48.80249364 65.13051742 -49.765625 63.8515625 C-50.24136963 63.22330566 -50.71711426 62.59504883 -51.20727539 61.94775391 C-54.48705263 57.58639007 -57.65734154 53.28623573 -60.1875 48.4375 C-61.65161648 45.69518659 -62.94354842 43.69365446 -65 41.3125 C-66.625 39.0625 -66.625 39.0625 -66.5 36.375 C-65.625 34.0625 -65.625 34.0625 -63.625 32.0625 C-59.28478552 30.45501316 -54.60735482 30.66602904 -50.125 31.5625 C-45.14053238 34.55318057 -41.7267892 39.39312242 -38.5625 44.1875 C-36.24379646 47.62815686 -33.62285615 50.20091004 -30.625 53.0625 C-27.1310963 51.6654878 -25.9454218 50.40867276 -24.44140625 46.984375 C-24.07337891 46.15993896 -23.70535156 45.33550293 -23.32617188 44.48608398 C-22.95041016 43.60380127 -22.57464844 42.72151855 -22.1875 41.8125 C-21.79498047 40.91023682 -21.40246094 40.00797363 -20.99804688 39.07836914 C-19.85205827 36.41489272 -18.73183821 33.74245708 -17.625 31.0625 C-17.33351074 30.35786621 -17.04202148 29.65323242 -16.74169922 28.92724609 C-13.90988571 21.94471662 -12.36094511 15.85474941 -11.99609375 8.34765625 C-11.41211939 4.75160361 -9.47420333 3.14728293 -6.625 1.0625 C-4.21954362 -0.14022819 -2.67503047 -0.03821472 0 0 Z " fill="#0B0B0B" transform="translate(945.625,293.9375)"/>
<path d="M0 0 C4.14843366 1.12499896 7.07298488 2.58202261 9.6875 6 C10.56560784 9.08289519 10.52848129 12.05239906 10.484375 15.2421875 C10.49238129 16.15039749 10.50038757 17.05860748 10.50863647 17.99433899 C10.52036777 20.9558318 10.48233645 23.91385904 10.4375 26.875 C10.42852692 28.38847519 10.42852692 28.38847519 10.41937256 29.93252563 C10.31121101 45.4651091 8.80242569 59.93736046 5.1953125 75.04296875 C3.95683145 80.26566646 3.27400174 85.36694803 2.76953125 90.6953125 C1.83564706 100.2764354 -0.34526381 109.38331129 -2.75 118.6875 C-3.54571433 121.81506796 -4.33456743 124.9443288 -5.12109375 128.07421875 C-5.31138153 128.82656799 -5.50166931 129.57891724 -5.69772339 130.35406494 C-7.23676165 136.51105438 -8.50418648 142.69780355 -9.67016602 148.93530273 C-10.2144509 151.53218913 -10.88124972 153.89738495 -11.8125 156.375 C-13.3005694 160.47869654 -13.98875321 164.64471606 -14.6875 168.9375 C-17.90354647 187.8361736 -23.50066677 210.20287522 -36.3125 225 C-38.57421875 225.390625 -38.57421875 225.390625 -41 225.25 C-41.80824219 225.21390625 -42.61648438 225.1778125 -43.44921875 225.140625 C-44.06410156 225.09421875 -44.67898438 225.0478125 -45.3125 225 C-46.75539732 222.11420536 -46.56055076 219.59746195 -46.625 216.375 C-46.68107422 214.59222656 -46.68107422 214.59222656 -46.73828125 212.7734375 C-46.2728933 202.46166887 -42.37697781 191.94918483 -39.21728516 182.2121582 C-33.42202728 164.21010241 -28.92521231 145.88598011 -24.47236633 127.51683807 C-23.9440729 125.33958883 -23.41337682 123.16293707 -22.88220215 120.98638916 C-15.18789338 90.27406863 -15.18789338 90.27406863 -11.125 58.9375 C-11.04950928 57.90729736 -10.97401855 56.87709473 -10.89624023 55.81567383 C-10.44002011 48.97832914 -10.2202939 42.14636196 -10.078125 35.296875 C-10.0599321 34.46148697 -10.0417392 33.62609894 -10.022995 32.76539612 C-9.93509428 28.60187977 -9.86644132 24.43942995 -9.8293457 20.27514648 C-9.80453152 18.73941517 -9.7793997 17.20368894 -9.75390625 15.66796875 C-9.75388611 14.96698059 -9.75386597 14.26599243 -9.75384521 13.54376221 C-9.6647557 9.18398561 -8.8694541 6.52562542 -6.3125 3 C-5.69375 2.071875 -5.69375 2.071875 -5.0625 1.125 C-3.3125 0 -3.3125 0 0 0 Z " fill="#0C0C0C" transform="translate(856.3125,264)"/>
<path d="M0 0 C2.375 1.625 2.375 1.625 4 4 C4.60477907 9.75243343 3.17109141 13.43655204 0.25 18.25 C-0.153396 18.93980957 -0.55679199 19.62961914 -0.97241211 20.34033203 C-5.02726397 27.20616906 -9.31887746 33.92842974 -13.609375 40.6484375 C-18.26487947 47.96064602 -22.77791183 55.36130108 -27.30493164 62.75341797 C-29.19727353 65.83937619 -31.09579321 68.92134978 -33 72 C-33.62132812 73.00458252 -34.24265625 74.00916504 -34.8828125 75.04418945 C-41.26541433 85.23568068 -50.40483343 98.32336317 -62 103 C-64.25 102.625 -64.25 102.625 -66 102 C-65.07940539 97.54650964 -62.69485569 94.27926585 -60.1875 90.5625 C-46.19550627 69.33326813 -34.37782146 46.64214205 -23.625 23.625 C-14.99426692 5.16477306 -14.99426692 5.16477306 -9 0 C-5.41563853 -1.19478716 -3.63093708 -0.96330984 0 0 Z " fill="#101010" transform="translate(764,286)"/>
<path d="M0 0 C0.66 0 1.32 0 2 0 C2.36762451 0.82612793 2.73524902 1.65225586 3.11401367 2.50341797 C4.50071861 5.61669582 5.88946934 8.72904505 7.27954102 11.84082031 C7.87669622 13.1786792 8.47307278 14.51688596 9.06860352 15.85546875 C9.9329271 17.79783427 10.79998314 19.73895597 11.66796875 21.6796875 C11.95058563 22.31453064 12.23320251 22.94937378 12.52438354 23.60345459 C14.53178667 28.07336413 16.73034528 32.3982759 19.14575195 36.66064453 C21.05633042 41.89275738 19.90779151 47.39192059 18.94140625 52.73828125 C18.72033203 53.96998047 18.49925781 55.20167969 18.27148438 56.47070312 C18.03751953 57.73849609 17.80355469 59.00628906 17.5625 60.3125 C17.33240234 61.59962891 17.10230469 62.88675781 16.86523438 64.21289062 C15.13976698 73.72046604 15.13976698 73.72046604 14 76 C7.95523473 74.20513796 2.33824153 71.50677707 -3.375 68.875 C-4.90833984 68.17310547 -4.90833984 68.17310547 -6.47265625 67.45703125 C-8.98303821 66.30741708 -11.49209231 65.15499936 -14 64 C-13.37719388 56.92382339 -12.01054709 50.25045914 -10.3125 43.359375 C-10.04993408 42.27416565 -9.78736816 41.1889563 -9.5168457 40.07086182 C-8.68310235 36.62928569 -7.84182167 33.18960811 -7 29.75 C-6.15977438 26.29573913 -5.32110013 22.84110607 -4.4831543 19.3862915 C-3.96285476 17.24342851 -3.44094825 15.1009549 -2.91723633 12.95892334 C-2.68029053 11.98731262 -2.44334473 11.0157019 -2.19921875 10.01464844 C-1.99127686 9.16465271 -1.78333496 8.31465698 -1.5690918 7.43890381 C-0.99256087 4.96811881 -0.48410636 2.49039492 0 0 Z " fill="#FD520B" transform="translate(42,213)"/>
<path d="M0 0 C11.69278168 1.58546192 25.34649261 8.09530654 32.90625 17.328125 C35.00487137 20.176254 37.00546208 23.07811235 39 26 C40.16924764 27.63694669 41.33868122 29.27377219 42.51416016 30.90625 C43.77109785 32.65434193 45.01910258 34.40853149 46.265625 36.1640625 C48.2395438 38.94125253 50.23330711 41.70325281 52.234375 44.4609375 C53.32309106 45.97383285 54.41163542 47.48685178 55.5 49 C56.0165918 49.70592285 56.53318359 50.4118457 57.06542969 51.13916016 C61.24222179 56.97581667 63.28736338 61.82045929 63.25 69.125 C63.25773437 70.64480469 63.25773437 70.64480469 63.265625 72.1953125 C62.99046264 75.10070334 62.82885653 76.71918467 61 79 C57.875 79.75 57.875 79.75 55 80 C49.98139951 73.63562954 45.80884832 67.10314043 41.9375 60 C38.20556474 53.15270395 34.37378202 46.46515366 30 40 C29.38769531 39.07832031 28.77539062 38.15664063 28.14453125 37.20703125 C23.0167755 29.78662622 17.08555985 23.5979471 9.703125 18.375 C9.14109375 17.92125 8.5790625 17.4675 8 17 C8 16.34 8 15.68 8 15 C7.40832031 14.74992187 6.81664062 14.49984375 6.20703125 14.2421875 C3.69950455 12.83087159 2.42291691 11.40731008 0.6875 9.125 C0.15511719 8.44695312 -0.37726563 7.76890625 -0.92578125 7.0703125 C-2 5 -2 5 -1.73046875 2.8046875 C-1 1 -1 1 0 0 Z " fill="#0F0F0F" transform="translate(1341,413)"/>
<path d="M0 0 C0.66 0.33 1.32 0.66 2 1 C2.29896462 8.79111285 1.55088528 15.84706148 -0.1875 23.4375 C-0.53022949 24.95996338 -0.53022949 24.95996338 -0.87988281 26.51318359 C-2.57245369 33.75491911 -4.84596891 40.26704244 -8 47 C-8.69691885 48.67426294 -9.38629244 50.351676 -10.0703125 52.03125 C-13.89441661 61.35959686 -17.55154046 70.1315429 -24 78 C-25.00406713 79.33027327 -26.00524953 80.66274562 -27 82 C-29.92761527 81.67470941 -32.32615294 81.40430823 -34.875 79.875 C-36.67133989 76.88110018 -36.25944538 74.43940428 -36 71 C-34.92709655 68.45756125 -33.83522834 66.20295478 -32.5 63.8125 C-24.99474084 49.55705827 -19.52225991 34.75130233 -15.55126953 19.15478516 C-14.80408684 16.23422077 -14.01890886 13.3243055 -13.23535156 10.41333008 C-12.48216113 7.61101863 -11.74071931 4.80562958 -11 2 C-7.25838897 2 -3.71046443 2.51338171 0 3 C0 2.01 0 1.02 0 0 Z " fill="#101010" transform="translate(1286,407)"/>
<path d="M0 0 C2.1875 1.6875 2.1875 1.6875 4.1875 4.6875 C3.89045038 8.84619464 3.51811852 11.19157222 1.1875 14.6875 C-1.07373047 15.43603516 -1.07373047 15.43603516 -3.9296875 15.9765625 C-4.99848145 16.1916748 -6.06727539 16.40678711 -7.16845703 16.62841797 C-8.32974121 16.85416504 -9.49102539 17.07991211 -10.6875 17.3125 C-22.29431197 19.69591582 -33.25643276 22.86194877 -44.43310547 26.79150391 C-50.84474108 28.98646978 -56.02406943 30.31338367 -62.8125 29.6875 C-65.375 28.125 -65.375 28.125 -66.8125 25.6875 C-67.55204022 19.66552968 -67.55204022 19.66552968 -65.59741211 17.08056641 C-63.40404477 15.36871385 -61.48699868 14.74291426 -58.81640625 13.9609375 C-57.28560425 13.50267578 -57.28560425 13.50267578 -55.72387695 13.03515625 C-54.61874756 12.71417969 -53.51361816 12.39320313 -52.375 12.0625 C-50.02540684 11.36411136 -47.67647075 10.66350915 -45.328125 9.9609375 C-43.48831055 9.41131348 -43.48831055 9.41131348 -41.61132812 8.85058594 C-37.75937238 7.67123394 -33.93257407 6.43260086 -30.109375 5.1640625 C-28.85825928 4.7510791 -27.60714355 4.3380957 -26.31811523 3.91259766 C-23.89844083 3.10993182 -21.48117116 2.29997157 -19.06665039 1.48193359 C-6.02925434 -2.81365202 -6.02925434 -2.81365202 0 0 Z " fill="#0F0F0F" transform="translate(608.8125,260.3125)"/>
<path d="M0 0 C6.83737278 2.74606679 12.65954609 7.0747468 18.4375 11.5625 C19.02861572 12.02116455 19.61973145 12.4798291 20.22875977 12.95239258 C24.49280334 16.36399381 28.26372476 19.64391922 29.9375 25 C30.01262443 28.60597267 29.12383624 30.14098968 27 33 C26 34 26 34 23.26171875 34.28125 C19.35353053 33.94425652 17.87088341 32.90598998 14.8125 30.5 C13.86375 29.77296875 12.915 29.0459375 11.9375 28.296875 C10.968125 27.53890625 9.99875 26.7809375 9 26 C1.59764396 20.32015441 1.59764396 20.32015441 -6.5 15.75 C-11.58490566 13.20754717 -11.58490566 13.20754717 -13 10 C-13 6.13201853 -12.46422971 4.51884497 -9.875 1.625 C-6.04948676 -0.53724662 -4.37157291 -0.70509241 0 0 Z " fill="#0F0F0F" transform="translate(611,382)"/>
<path d="M0 0 C0.33 0 0.66 0 1 0 C1.1593085 16.35567221 0.67055824 32.65870981 0 49 C-0.33 49 -0.66 49 -1 49 C-1.79792176 45.48660865 -2.12836476 42.24074904 -2.1328125 38.640625 C-2.13482666 37.61461182 -2.13684082 36.58859863 -2.13891602 35.53149414 C-2.13432373 34.44860107 -2.12973145 33.36570801 -2.125 32.25 C-2.12234131 31.14068115 -2.11968262 30.0313623 -2.11694336 28.88842773 C-2.07914352 22.27058517 -1.94094547 15.66995341 -1.5625 9.0625 C-1.52334473 8.36608398 -1.48418945 7.66966797 -1.44384766 6.95214844 C-1.13220774 2.26441549 -1.13220774 2.26441549 0 0 Z " fill="#FA7040" transform="translate(350,150)"/>
<path d="M0 0 C-1.24717912 3.74153737 -3.09887781 5.37517516 -6 8 C-6.99 8.33 -7.98 8.66 -9 9 C-9.928125 10.175625 -9.928125 10.175625 -10.875 11.375 C-13.06878254 14.08496666 -14.86385426 15.51445728 -18 17 C-18.66 16.67 -19.32 16.34 -20 16 C-17.93942825 14.08122455 -15.87662937 12.16494202 -13.8125 10.25 C-13.23435547 9.71117187 -12.65621094 9.17234375 -12.06054688 8.6171875 C-2.76028963 0 -2.76028963 0 0 0 Z " fill="#F96B3C" transform="translate(147,220)"/>
<path d="M0 0 C1.485 0.99 1.485 0.99 3 2 C3 2.66 3 3.32 3 4 C3.61875 4.268125 4.2375 4.53625 4.875 4.8125 C7 6 7 6 9 9 C7.68 10.65 6.36 12.3 5 14 C4.15973604 12.23244474 3.32801278 10.46082737 2.5 8.6875 C2.0359375 7.70136719 1.571875 6.71523437 1.09375 5.69921875 C0 3 0 3 0 0 Z " fill="#F95C24" transform="translate(64,201)"/>
<path d="M0 0 C3.62613199 0.56959153 5.25517741 1.92374534 7.75 4.5625 C8.36359375 5.20316406 8.9771875 5.84382812 9.609375 6.50390625 C10.06828125 6.99761719 10.5271875 7.49132812 11 8 C10.34 8.66 9.68 9.32 9 10 C7.49702124 8.52386015 5.99768715 7.04400843 4.5 5.5625 C3.6646875 4.73878906 2.829375 3.91507813 1.96875 3.06640625 C0 1 0 1 0 0 Z " fill="#F9693B" transform="translate(224,559)"/>
<path d="M0 0 C-2.00844092 4.92980953 -5.64105074 8.09403383 -10 11 C-10 8 -10 8 -8.3203125 5.95703125 C-7.23363281 4.89548828 -7.23363281 4.89548828 -6.125 3.8125 C-5.40570313 3.09707031 -4.68640625 2.38164062 -3.9453125 1.64453125 C-2 0 -2 0 0 0 Z " fill="#F96738" transform="translate(428,468)"/>
<path d="M0 0 C1.485 0.99 1.485 0.99 3 2 C3 2.66 3 3.32 3 4 C3.99 4.33 4.98 4.66 6 5 C5.34 6.65 4.68 8.3 4 10 C0 4 0 4 0 0 Z " fill="#F97348" transform="translate(64,201)"/>
<path d="M0 0 C4.95 1.98 4.95 1.98 10 4 C6.29847322 4.92538169 5.36541838 5.08174162 2 4 C1.67 4.66 1.34 5.32 1 6 C0.67 4.02 0.34 2.04 0 0 Z " fill="#F96D40" transform="translate(0,290)"/>
<path d="M0 0 C3.7952131 1.49097658 5.61042731 3.75700849 8 7 C7.01 7 6.02 7 5 7 C0 1.53488372 0 1.53488372 0 0 Z " fill="#F96535" transform="translate(170,503)"/>
<path d="M0 0 C3.25543229 0.34879632 4.01873107 1.02133261 6.25 3.5625 C6.8275 4.366875 7.405 5.17125 8 6 C5 6 5 6 3.61328125 4.6875 C2.40885417 3.125 1.20442708 1.5625 0 0 Z " fill="#FA7348" transform="translate(217,552)"/>
<path d="M0 0 C1 3 1 3 1 5 C1.66 5.33 2.32 5.66 3 6 C0.69 5.67 -1.62 5.34 -4 5 C-3 2 -3 2 0 0 Z " fill="#F88460" transform="translate(26,453)"/>
<path d="M0 0 C0.66 0.33 1.32 0.66 2 1 C-0.31 3.31 -2.62 5.62 -5 8 C-5.33 7.01 -5.66 6.02 -6 5 C-4.02 3.35 -2.04 1.7 0 0 Z " fill="#4E4E4E" transform="translate(1110,438)"/>
<path d="M0 0 C2.475 0.99 2.475 0.99 5 2 C5 3.65 5 5.3 5 7 C4.34 7 3.68 7 3 7 C0.70351351 4.4385343 0 3.52032428 0 0 Z " fill="#FA6435" transform="translate(179,363)"/>
</svg>
